<?xml version="1.0" encoding="us-ascii" standalone="no"?><svg xmlns="http://www.w3.org/2000/svg" xmlns:xlink="http://www.w3.org/1999/xlink" contentStyleType="text/css" height="708px" preserveAspectRatio="none" style="width:1691px;height:708px;background:#FFFFFF;" version="1.1" viewBox="0 0 1691 708" width="1691px" zoomAndPan="magnify"><defs/><g><!--class =DataType--><g id="elem_=DataType"><rect codeLine="15" fill="#F1F1F1" height="71.5469" id="=DataType" rx="2.5" ry="2.5" style="stroke:#181818;stroke-width:0.5;" width="106" x="1294" y="23"/><rect fill="#7B68EE" height="30.9531" rx="2.5" ry="2.5" style="stroke:#7B68EE;stroke-width:0.5;" width="106" x="1294" y="23"/><rect fill="#7B68EE" height="2.5" style="stroke:#7B68EE;stroke-width:0.5;" width="106" x="1294" y="51.4531"/><rect codeLine="15" fill="none" height="71.5469" id="=DataType" rx="2.5" ry="2.5" style="stroke:#181818;stroke-width:0.5;" width="106" x="1294" y="23"/><text fill="#FFFFFF" font-family="Heiti TC" font-size="18" font-weight="bold" lengthAdjust="spacing" textLength="100" x="1297" y="44.708">DataType</text><line style="stroke:#181818;stroke-width:0.5;" x1="1295" x2="1399" y1="53.9531" y2="53.9531"/><text fill="#000000" font-family="Heiti TC" font-size="14" lengthAdjust="spacing" textLength="29" x="1300" y="70.9482">gtfs</text><text fill="#000000" font-family="Heiti TC" font-size="14" lengthAdjust="spacing" textLength="49" x="1300" y="87.2451">gtfs_rt</text></g><!--class =Status--><g id="elem_=Status"><rect codeLine="20" fill="#F1F1F1" height="104.1406" id="=Status" rx="2.5" ry="2.5" style="stroke:#181818;stroke-width:0.5;" width="109" x="1435.5" y="7"/><rect fill="#7B68EE" height="30.9531" rx="2.5" ry="2.5" style="stroke:#7B68EE;stroke-width:0.5;" width="109" x="1435.5" y="7"/><rect fill="#7B68EE" height="2.5" style="stroke:#7B68EE;stroke-width:0.5;" width="109" x="1435.5" y="35.4531"/><rect codeLine="20" fill="none" height="104.1406" id="=Status" rx="2.5" ry="2.5" style="stroke:#181818;stroke-width:0.5;" width="109" x="1435.5" y="7"/><text fill="#FFFFFF" font-family="Heiti TC" font-size="18" font-weight="bold" lengthAdjust="spacing" textLength="69" x="1455.5" y="28.708">Status</text><line style="stroke:#181818;stroke-width:0.5;" x1="1436.5" x2="1543.5" y1="37.9531" y2="37.9531"/><text fill="#000000" font-family="Heiti TC" font-size="14" lengthAdjust="spacing" textLength="44" x="1441.5" y="54.9482">active</text><text fill="#000000" font-family="Heiti TC" font-size="14" lengthAdjust="spacing" textLength="57" x="1441.5" y="71.2451">inactive</text><text fill="#000000" font-family="Heiti TC" font-size="14" lengthAdjust="spacing" textLength="97" x="1441.5" y="87.542">development</text><text fill="#000000" font-family="Heiti TC" font-size="14" lengthAdjust="spacing" textLength="84" x="1441.5" y="103.8389">deprecated</text></g><!--class =Feed--><g id="elem_=Feed"><rect codeLine="27" fill="#F1F1F1" height="234.5156" id="=Feed" rx="2.5" ry="2.5" style="stroke:#181818;stroke-width:0.5;" width="264" x="306" y="179"/><rect fill="#DEDEFF" height="30.9531" rx="2.5" ry="2.5" style="stroke:#DEDEFF;stroke-width:0.5;" width="264" x="306" y="179"/><rect fill="#DEDEFF" height="2.5" style="stroke:#DEDEFF;stroke-width:0.5;" width="264" x="306" y="207.4531"/><rect codeLine="27" fill="none" height="234.5156" id="=Feed" rx="2.5" ry="2.5" style="stroke:#181818;stroke-width:0.5;" width="264" x="306" y="179"/><text fill="#000000" font-family="Heiti TC" font-size="18" font-weight="bold" lengthAdjust="spacing" textLength="50" x="413" y="200.708">Feed</text><line style="stroke:#181818;stroke-width:0.5;" x1="307" x2="569" y1="209.9531" y2="209.9531"/><path d="M319.4167,217.4167 C317.8067,217.4167 316.5,218.7233 316.5,220.3333 C316.5,220.52 316.5,220.7067 316.535,220.8817 L313,224.4167 L313,226.75 L316.5,226.75 L316.5,224.4167 L318.8333,224.4167 L318.8333,223.25 L318.8683,223.215 C319.0433,223.25 319.23,223.25 319.4167,223.25 C321.0267,223.25 322.3333,221.9433 322.3333,220.3333 C322.3333,218.7233 321.0267,217.4167 319.4167,217.4167 M320,218.5833 C320.6417,218.5833 321.1667,219.1083 321.1667,219.75 C321.1667,220.3917 320.6417,220.9167 320,220.9167 C319.3583,220.9167 318.8333,220.3917 318.8333,219.75 C318.8333,219.1083 319.3583,218.5833 320,218.5833 " fill="#7B68EE" style="stroke:;stroke-width:0.0;stroke-dasharray:;"/><text fill="#000000" font-family="Heiti TC" font-size="14" lengthAdjust="spacing" textLength="79" x="327.3333" y="226.9482">id : varchar</text><text fill="#000000" font-family="Heiti TC" font-size="14" lengthAdjust="spacing" textLength="156" x="312" y="243.2451">data_type : DataType</text><text fill="#000000" font-family="Heiti TC" font-size="14" lengthAdjust="spacing" textLength="127" x="312" y="259.542">provider : varchar</text><text fill="#000000" font-family="Heiti TC" font-size="14" lengthAdjust="spacing" textLength="146" x="312" y="275.8389">feed_name : varchar</text><text fill="#000000" font-family="Heiti TC" font-size="14" lengthAdjust="spacing" textLength="100" x="312" y="292.1357">note : varchar</text><text fill="#000000" font-family="Heiti TC" font-size="14" lengthAdjust="spacing" textLength="156" x="312" y="308.4326">producer_url : varchar</text><text fill="#000000" font-family="Heiti TC" font-size="14" lengthAdjust="spacing" textLength="218" x="312" y="324.7295">authentication_type : boolean</text><text fill="#000000" font-family="Heiti TC" font-size="14" lengthAdjust="spacing" textLength="232" x="312" y="341.0264">authentication_info_url : varchar</text><text fill="#000000" font-family="Heiti TC" font-size="14" lengthAdjust="spacing" textLength="252" x="312" y="357.3232">api_key_parameter_name : varchar</text><text fill="#000000" font-family="Heiti TC" font-size="14" lengthAdjust="spacing" textLength="141" x="312" y="373.6201">license_url : varchar</text><text fill="#000000" font-family="Heiti TC" font-size="14" lengthAdjust="spacing" textLength="131" x="312" y="389.917">stable_id : varchar</text><text fill="#000000" font-family="Heiti TC" font-size="14" lengthAdjust="spacing" textLength="99" x="312" y="406.2139">status: Status</text></g><!--class =FeedHistory--><g id="elem_=FeedHistory"><rect codeLine="42" fill="#F1F1F1" height="250.8125" id="=FeedHistory" rx="2.5" ry="2.5" style="stroke:#181818;stroke-width:0.5;" width="264" x="7" y="171"/><rect fill="#DEDEFF" height="30.9531" rx="2.5" ry="2.5" style="stroke:#DEDEFF;stroke-width:0.5;" width="264" x="7" y="171"/><rect fill="#DEDEFF" height="2.5" style="stroke:#DEDEFF;stroke-width:0.5;" width="264" x="7" y="199.4531"/><rect codeLine="42" fill="none" height="250.8125" id="=FeedHistory" rx="2.5" ry="2.5" style="stroke:#181818;stroke-width:0.5;" width="264" x="7" y="171"/><text fill="#000000" font-family="Heiti TC" font-size="18" font-weight="bold" lengthAdjust="spacing" textLength="129" x="74.5" y="192.708">FeedHistory</text><line style="stroke:#181818;stroke-width:0.5;" x1="8" x2="270" y1="201.9531" y2="201.9531"/><path d="M20.4167,209.4167 C18.8067,209.4167 17.5,210.7233 17.5,212.3333 C17.5,212.52 17.5,212.7067 17.535,212.8817 L14,216.4167 L14,218.75 L17.5,218.75 L17.5,216.4167 L19.8333,216.4167 L19.8333,215.25 L19.8683,215.215 C20.0433,215.25 20.23,215.25 20.4167,215.25 C22.0267,215.25 23.3333,213.9433 23.3333,212.3333 C23.3333,210.7233 22.0267,209.4167 20.4167,209.4167 M21,210.5833 C21.6417,210.5833 22.1667,211.1083 22.1667,211.75 C22.1667,212.3917 21.6417,212.9167 21,212.9167 C20.3583,212.9167 19.8333,212.3917 19.8333,211.75 C19.8333,211.1083 20.3583,210.5833 21,210.5833 " fill="#7B68EE" style="stroke:;stroke-width:0.0;stroke-dasharray:;"/><path d="M31.75,209.4167 C30.14,209.4167 28.8333,210.7233 28.8333,212.3333 C28.8333,212.52 28.8333,212.7067 28.8683,212.8817 L25.3333,216.4167 L25.3333,218.75 L28.8333,218.75 L28.8333,216.4167 L31.1667,216.4167 L31.1667,215.25 L31.2017,215.215 C31.3767,215.25 31.5633,215.25 31.75,215.25 C33.36,215.25 34.6667,213.9433 34.6667,212.3333 C34.6667,210.7233 33.36,209.4167 31.75,209.4167 M32.3333,210.5833 C32.975,210.5833 33.5,211.1083 33.5,211.75 C33.5,212.3917 32.975,212.9167 32.3333,212.9167 C31.6917,212.9167 31.1667,212.3917 31.1667,211.75 C31.1667,211.1083 31.6917,210.5833 32.3333,210.5833 " fill="#000000" style="stroke:;stroke-width:0.0;stroke-dasharray:;"/><text fill="#000000" font-family="Heiti TC" font-size="14" lengthAdjust="spacing" textLength="79" x="39.6667" y="218.9482">id : varchar</text><path d="M20.4167,225.7135 C18.8067,225.7135 17.5,227.0202 17.5,228.6302 C17.5,228.8169 17.5,229.0035 17.535,229.1785 L14,232.7135 L14,235.0469 L17.5,235.0469 L17.5,232.7135 L19.8333,232.7135 L19.8333,231.5469 L19.8683,231.5119 C20.0433,231.5469 20.23,231.5469 20.4167,231.5469 C22.0267,231.5469 23.3333,230.2402 23.3333,228.6302 C23.3333,227.0202 22.0267,225.7135 20.4167,225.7135 M21,226.8802 C21.6417,226.8802 22.1667,227.4052 22.1667,228.0469 C22.1667,228.6885 21.6417,229.2135 21,229.2135 C20.3583,229.2135 19.8333,228.6885 19.8333,228.0469 C19.8333,227.4052 20.3583,226.8802 21,226.8802 " fill="#7B68EE" style="stroke:;stroke-width:0.0;stroke-dasharray:;"/><text fill="#000000" font-family="Heiti TC" font-size="14" lengthAdjust="spacing" textLength="205" x="28.3333" y="235.2451">historical_record_time: Date</text><text fill="#000000" font-family="Heiti TC" font-size="14" lengthAdjust="spacing" textLength="156" x="13" y="251.542">data_type : DataType</text><text fill="#000000" font-family="Heiti TC" font-size="14" lengthAdjust="spacing" textLength="127" x="13" y="267.8389">provider : varchar</text><text fill="#000000" font-family="Heiti TC" font-size="14" lengthAdjust="spacing" textLength="146" x="13" y="284.1357">feed_name : varchar</text><text fill="#000000" font-family="Heiti TC" font-size="14" lengthAdjust="spacing" textLength="100" x="13" y="300.4326">note : varchar</text><text fill="#000000" font-family="Heiti TC" font-size="14" lengthAdjust="spacing" textLength="156" x="13" y="316.7295">producer_url : varchar</text><text fill="#000000" font-family="Heiti TC" font-size="14" lengthAdjust="spacing" textLength="218" x="13" y="333.0264">authentication_type : boolean</text><text fill="#000000" font-family="Heiti TC" font-size="14" lengthAdjust="spacing" textLength="232" x="13" y="349.3232">authentication_info_url : varchar</text><text fill="#000000" font-family="Heiti TC" font-size="14" lengthAdjust="spacing" textLength="252" x="13" y="365.6201">api_key_parameter_name : varchar</text><text fill="#000000" font-family="Heiti TC" font-size="14" lengthAdjust="spacing" textLength="141" x="13" y="381.917">license_url : varchar</text><text fill="#000000" font-family="Heiti TC" font-size="14" lengthAdjust="spacing" textLength="131" x="13" y="398.2139">stable_id : varchar</text><text fill="#000000" font-family="Heiti TC" font-size="14" lengthAdjust="spacing" textLength="99" x="13" y="414.5107">status: Status</text></g><!--class =GTFSRealtimeFeed--><g id="elem_=GTFSRealtimeFeed"><rect codeLine="59" fill="#F1F1F1" height="55.25" id="=GTFSRealtimeFeed" rx="2.5" ry="2.5" style="stroke:#181818;stroke-width:0.5;" width="203" x="702.5" y="498.5"/><rect fill="#DEDEFF" height="30.9531" rx="2.5" ry="2.5" style="stroke:#DEDEFF;stroke-width:0.5;" width="203" x="702.5" y="498.5"/><rect fill="#DEDEFF" height="2.5" style="stroke:#DEDEFF;stroke-width:0.5;" width="203" x="702.5" y="526.9531"/><rect codeLine="59" fill="none" height="55.25" id="=GTFSRealtimeFeed" rx="2.5" ry="2.5" style="stroke:#181818;stroke-width:0.5;" width="203" x="702.5" y="498.5"/><text fill="#000000" font-family="Heiti TC" font-size="18" font-weight="bold" lengthAdjust="spacing" textLength="197" x="705.5" y="520.208">GTFSRealtimeFeed</text><line style="stroke:#181818;stroke-width:0.5;" x1="703.5" x2="904.5" y1="529.4531" y2="529.4531"/><path d="M715.9167,536.9167 C714.3067,536.9167 713,538.2233 713,539.8333 C713,540.02 713,540.2067 713.035,540.3817 L709.5,543.9167 L709.5,546.25 L713,546.25 L713,543.9167 L715.3333,543.9167 L715.3333,542.75 L715.3683,542.715 C715.5433,542.75 715.73,542.75 715.9167,542.75 C717.5267,542.75 718.8333,541.4433 718.8333,539.8333 C718.8333,538.2233 717.5267,536.9167 715.9167,536.9167 M716.5,538.0833 C717.1417,538.0833 717.6667,538.6083 717.6667,539.25 C717.6667,539.8917 717.1417,540.4167 716.5,540.4167 C715.8583,540.4167 715.3333,539.8917 715.3333,539.25 C715.3333,538.6083 715.8583,538.0833 716.5,538.0833 " fill="#7B68EE" style="stroke:;stroke-width:0.0;stroke-dasharray:;"/><path d="M727.25,536.9167 C725.64,536.9167 724.3333,538.2233 724.3333,539.8333 C724.3333,540.02 724.3333,540.2067 724.3683,540.3817 L720.8333,543.9167 L720.8333,546.25 L724.3333,546.25 L724.3333,543.9167 L726.6667,543.9167 L726.6667,542.75 L726.7017,542.715 C726.8767,542.75 727.0633,542.75 727.25,542.75 C728.86,542.75 730.1667,541.4433 730.1667,539.8333 C730.1667,538.2233 728.86,536.9167 727.25,536.9167 M727.8333,538.0833 C728.475,538.0833 729,538.6083 729,539.25 C729,539.8917 728.475,540.4167 727.8333,540.4167 C727.1917,540.4167 726.6667,539.8917 726.6667,539.25 C726.6667,538.6083 727.1917,538.0833 727.8333,538.0833 " fill="#000000" style="stroke:;stroke-width:0.0;stroke-dasharray:;"/><text fill="#000000" font-family="Heiti TC" font-size="14" lengthAdjust="spacing" textLength="79" x="735.1667" y="546.4482">id : varchar</text></g><!--class =EntityType--><g id="elem_=EntityType"><rect codeLine="63" fill="#F1F1F1" height="55.25" id="=EntityType" rx="2.5" ry="2.5" style="stroke:#181818;stroke-width:0.5;" width="133.3333" x="937.5" y="638.5"/><rect fill="#DEDEFF" height="30.9531" rx="2.5" ry="2.5" style="stroke:#DEDEFF;stroke-width:0.5;" width="133.3333" x="937.5" y="638.5"/><rect fill="#DEDEFF" height="2.5" style="stroke:#DEDEFF;stroke-width:0.5;" width="133.3333" x="937.5" y="666.9531"/><rect codeLine="63" fill="none" height="55.25" id="=EntityType" rx="2.5" ry="2.5" style="stroke:#181818;stroke-width:0.5;" width="133.3333" x="937.5" y="638.5"/><text fill="#000000" font-family="Heiti TC" font-size="18" font-weight="bold" lengthAdjust="spacing" textLength="116" x="946.1667" y="660.208">EntityType</text><line style="stroke:#181818;stroke-width:0.5;" x1="938.5" x2="1069.8333" y1="669.4531" y2="669.4531"/><path d="M950.9167,676.9167 C949.3067,676.9167 948,678.2233 948,679.8333 C948,680.02 948,680.2067 948.035,680.3817 L944.5,683.9167 L944.5,686.25 L948,686.25 L948,683.9167 L950.3333,683.9167 L950.3333,682.75 L950.3683,682.715 C950.5433,682.75 950.73,682.75 950.9167,682.75 C952.5267,682.75 953.8333,681.4433 953.8333,679.8333 C953.8333,678.2233 952.5267,676.9167 950.9167,676.9167 M951.5,678.0833 C952.1417,678.0833 952.6667,678.6083 952.6667,679.25 C952.6667,679.8917 952.1417,680.4167 951.5,680.4167 C950.8583,680.4167 950.3333,679.8917 950.3333,679.25 C950.3333,678.6083 950.8583,678.0833 951.5,678.0833 " fill="#7B68EE" style="stroke:;stroke-width:0.0;stroke-dasharray:;"/><text fill="#000000" font-family="Heiti TC" font-size="14" lengthAdjust="spacing" textLength="106" x="958.8333" y="686.4482">name : varchar</text></g><!--class =EntityTypeFeed--><g id="elem_=EntityTypeFeed"><rect codeLine="67" fill="#F1F1F1" height="71.5469" id="=EntityTypeFeed" rx="2.5" ry="2.5" style="stroke:#181818;stroke-width:0.5;" width="195.6667" x="706" y="630"/><rect fill="#DEDEFF" height="30.9531" rx="2.5" ry="2.5" style="stroke:#DEDEFF;stroke-width:0.5;" width="195.6667" x="706" y="630"/><rect fill="#DEDEFF" height="2.5" style="stroke:#DEDEFF;stroke-width:0.5;" width="195.6667" x="706" y="658.4531"/><rect codeLine="67" fill="none" height="71.5469" id="=EntityTypeFeed" rx="2.5" ry="2.5" style="stroke:#181818;stroke-width:0.5;" width="195.6667" x="706" y="630"/><text fill="#000000" font-family="Heiti TC" font-size="18" font-weight="bold" lengthAdjust="spacing" textLength="166" x="720.8333" y="651.708">EntityTypeFeed</text><line style="stroke:#181818;stroke-width:0.5;" x1="707" x2="900.6667" y1="660.9531" y2="660.9531"/><path d="M719.4167,668.4167 C717.8067,668.4167 716.5,669.7233 716.5,671.3333 C716.5,671.52 716.5,671.7067 716.535,671.8817 L713,675.4167 L713,677.75 L716.5,677.75 L716.5,675.4167 L718.8333,675.4167 L718.8333,674.25 L718.8683,674.215 C719.0433,674.25 719.23,674.25 719.4167,674.25 C721.0267,674.25 722.3333,672.9433 722.3333,671.3333 C722.3333,669.7233 721.0267,668.4167 719.4167,668.4167 M720,669.5833 C720.6417,669.5833 721.1667,670.1083 721.1667,670.75 C721.1667,671.3917 720.6417,671.9167 720,671.9167 C719.3583,671.9167 718.8333,671.3917 718.8333,670.75 C718.8333,670.1083 719.3583,669.5833 720,669.5833 " fill="#7B68EE" style="stroke:;stroke-width:0.0;stroke-dasharray:;"/><path d="M730.75,668.4167 C729.14,668.4167 727.8333,669.7233 727.8333,671.3333 C727.8333,671.52 727.8333,671.7067 727.8683,671.8817 L724.3333,675.4167 L724.3333,677.75 L727.8333,677.75 L727.8333,675.4167 L730.1667,675.4167 L730.1667,674.25 L730.2017,674.215 C730.3767,674.25 730.5633,674.25 730.75,674.25 C732.36,674.25 733.6667,672.9433 733.6667,671.3333 C733.6667,669.7233 732.36,668.4167 730.75,668.4167 M731.3333,669.5833 C731.975,669.5833 732.5,670.1083 732.5,670.75 C732.5,671.3917 731.975,671.9167 731.3333,671.9167 C730.6917,671.9167 730.1667,671.3917 730.1667,670.75 C730.1667,670.1083 730.6917,669.5833 731.3333,669.5833 " fill="#000000" style="stroke:;stroke-width:0.0;stroke-dasharray:;"/><text fill="#000000" font-family="Heiti TC" font-size="14" lengthAdjust="spacing" textLength="157" x="738.6667" y="677.9482">entity_name : varchar</text><path d="M719.4167,684.7135 C717.8067,684.7135 716.5,686.0202 716.5,687.6302 C716.5,687.8169 716.5,688.0035 716.535,688.1785 L713,691.7135 L713,694.0469 L716.5,694.0469 L716.5,691.7135 L718.8333,691.7135 L718.8333,690.5469 L718.8683,690.5119 C719.0433,690.5469 719.23,690.5469 719.4167,690.5469 C721.0267,690.5469 722.3333,689.2402 722.3333,687.6302 C722.3333,686.0202 721.0267,684.7135 719.4167,684.7135 M720,685.8802 C720.6417,685.8802 721.1667,686.4052 721.1667,687.0469 C721.1667,687.6885 720.6417,688.2135 720,688.2135 C719.3583,688.2135 718.8333,687.6885 718.8333,687.0469 C718.8333,686.4052 719.3583,685.8802 720,685.8802 " fill="#7B68EE" style="stroke:;stroke-width:0.0;stroke-dasharray:;"/><path d="M730.75,684.7135 C729.14,684.7135 727.8333,686.0202 727.8333,687.6302 C727.8333,687.8169 727.8333,688.0035 727.8683,688.1785 L724.3333,691.7135 L724.3333,694.0469 L727.8333,694.0469 L727.8333,691.7135 L730.1667,691.7135 L730.1667,690.5469 L730.2017,690.5119 C730.3767,690.5469 730.5633,690.5469 730.75,690.5469 C732.36,690.5469 733.6667,689.2402 733.6667,687.6302 C733.6667,686.0202 732.36,684.7135 730.75,684.7135 M731.3333,685.8802 C731.975,685.8802 732.5,686.4052 732.5,687.0469 C732.5,687.6885 731.975,688.2135 731.3333,688.2135 C730.6917,688.2135 730.1667,687.6885 730.1667,687.0469 C730.1667,686.4052 730.6917,685.8802 731.3333,685.8802 " fill="#000000" style="stroke:;stroke-width:0.0;stroke-dasharray:;"/><text fill="#000000" font-family="Heiti TC" font-size="14" lengthAdjust="spacing" textLength="119" x="738.6667" y="694.2451">feed_id : varchar</text></g><!--class =GTFSFeed--><g id="elem_=GTFSFeed"><rect codeLine="72" fill="#F1F1F1" height="55.25" id="=GTFSFeed" rx="2.5" ry="2.5" style="stroke:#181818;stroke-width:0.5;" width="117.6667" x="1422" y="269"/><rect fill="#DEDEFF" height="30.9531" rx="2.5" ry="2.5" style="stroke:#DEDEFF;stroke-width:0.5;" width="117.6667" x="1422" y="269"/><rect fill="#DEDEFF" height="2.5" style="stroke:#DEDEFF;stroke-width:0.5;" width="117.6667" x="1422" y="297.4531"/><rect codeLine="72" fill="none" height="55.25" id="=GTFSFeed" rx="2.5" ry="2.5" style="stroke:#181818;stroke-width:0.5;" width="117.6667" x="1422" y="269"/><text fill="#000000" font-family="Heiti TC" font-size="18" font-weight="bold" lengthAdjust="spacing" textLength="105" x="1428.3333" y="290.708">GTFSFeed</text><line style="stroke:#181818;stroke-width:0.5;" x1="1423" x2="1538.6667" y1="299.9531" y2="299.9531"/><path d="M1435.4167,307.4167 C1433.8067,307.4167 1432.5,308.7233 1432.5,310.3333 C1432.5,310.52 1432.5,310.7067 1432.535,310.8817 L1429,314.4167 L1429,316.75 L1432.5,316.75 L1432.5,314.4167 L1434.8333,314.4167 L1434.8333,313.25 L1434.8683,313.215 C1435.0433,313.25 1435.23,313.25 1435.4167,313.25 C1437.0267,313.25 1438.3333,311.9433 1438.3333,310.3333 C1438.3333,308.7233 1437.0267,307.4167 1435.4167,307.4167 M1436,308.5833 C1436.6417,308.5833 1437.1667,309.1083 1437.1667,309.75 C1437.1667,310.3917 1436.6417,310.9167 1436,310.9167 C1435.3583,310.9167 1434.8333,310.3917 1434.8333,309.75 C1434.8333,309.1083 1435.3583,308.5833 1436,308.5833 " fill="#7B68EE" style="stroke:;stroke-width:0.0;stroke-dasharray:;"/><path d="M1446.75,307.4167 C1445.14,307.4167 1443.8333,308.7233 1443.8333,310.3333 C1443.8333,310.52 1443.8333,310.7067 1443.8683,310.8817 L1440.3333,314.4167 L1440.3333,316.75 L1443.8333,316.75 L1443.8333,314.4167 L1446.1667,314.4167 L1446.1667,313.25 L1446.2017,313.215 C1446.3767,313.25 1446.5633,313.25 1446.75,313.25 C1448.36,313.25 1449.6667,311.9433 1449.6667,310.3333 C1449.6667,308.7233 1448.36,307.4167 1446.75,307.4167 M1447.3333,308.5833 C1447.975,308.5833 1448.5,309.1083 1448.5,309.75 C1448.5,310.3917 1447.975,310.9167 1447.3333,310.9167 C1446.6917,310.9167 1446.1667,310.3917 1446.1667,309.75 C1446.1667,309.1083 1446.6917,308.5833 1447.3333,308.5833 " fill="#000000" style="stroke:;stroke-width:0.0;stroke-dasharray:;"/><text fill="#000000" font-family="Heiti TC" font-size="14" lengthAdjust="spacing" textLength="79" x="1454.6667" y="316.9482">id : varchar</text></g><!--class =FeedReference--><g id="elem_=FeedReference"><rect codeLine="76" fill="#F1F1F1" height="71.5469" id="=FeedReference" rx="2.5" ry="2.5" style="stroke:#181818;stroke-width:0.5;" width="213.6667" x="1252" y="490"/><rect fill="#DEDEFF" height="30.9531" rx="2.5" ry="2.5" style="stroke:#DEDEFF;stroke-width:0.5;" width="213.6667" x="1252" y="490"/><rect fill="#DEDEFF" height="2.5" style="stroke:#DEDEFF;stroke-width:0.5;" width="213.6667" x="1252" y="518.4531"/><rect codeLine="76" fill="none" height="71.5469" id="=FeedReference" rx="2.5" ry="2.5" style="stroke:#181818;stroke-width:0.5;" width="213.6667" x="1252" y="490"/><text fill="#000000" font-family="Heiti TC" font-size="18" font-weight="bold" lengthAdjust="spacing" textLength="154" x="1281.8333" y="511.708">FeedReference</text><line style="stroke:#181818;stroke-width:0.5;" x1="1253" x2="1464.6667" y1="520.9531" y2="520.9531"/><path d="M1265.4167,528.4167 C1263.8067,528.4167 1262.5,529.7233 1262.5,531.3333 C1262.5,531.52 1262.5,531.7067 1262.535,531.8817 L1259,535.4167 L1259,537.75 L1262.5,537.75 L1262.5,535.4167 L1264.8333,535.4167 L1264.8333,534.25 L1264.8683,534.215 C1265.0433,534.25 1265.23,534.25 1265.4167,534.25 C1267.0267,534.25 1268.3333,532.9433 1268.3333,531.3333 C1268.3333,529.7233 1267.0267,528.4167 1265.4167,528.4167 M1266,529.5833 C1266.6417,529.5833 1267.1667,530.1083 1267.1667,530.75 C1267.1667,531.3917 1266.6417,531.9167 1266,531.9167 C1265.3583,531.9167 1264.8333,531.3917 1264.8333,530.75 C1264.8333,530.1083 1265.3583,529.5833 1266,529.5833 " fill="#7B68EE" style="stroke:;stroke-width:0.0;stroke-dasharray:;"/><path d="M1276.75,528.4167 C1275.14,528.4167 1273.8333,529.7233 1273.8333,531.3333 C1273.8333,531.52 1273.8333,531.7067 1273.8683,531.8817 L1270.3333,535.4167 L1270.3333,537.75 L1273.8333,537.75 L1273.8333,535.4167 L1276.1667,535.4167 L1276.1667,534.25 L1276.2017,534.215 C1276.3767,534.25 1276.5633,534.25 1276.75,534.25 C1278.36,534.25 1279.6667,532.9433 1279.6667,531.3333 C1279.6667,529.7233 1278.36,528.4167 1276.75,528.4167 M1277.3333,529.5833 C1277.975,529.5833 1278.5,530.1083 1278.5,530.75 C1278.5,531.3917 1277.975,531.9167 1277.3333,531.9167 C1276.6917,531.9167 1276.1667,531.3917 1276.1667,530.75 C1276.1667,530.1083 1276.6917,529.5833 1277.3333,529.5833 " fill="#000000" style="stroke:;stroke-width:0.0;stroke-dasharray:;"/><text fill="#000000" font-family="Heiti TC" font-size="14" lengthAdjust="spacing" textLength="175" x="1284.6667" y="537.9482">gtfs_rt_feed_id : varchar</text><path d="M1265.4167,544.7135 C1263.8067,544.7135 1262.5,546.0202 1262.5,547.6302 C1262.5,547.8169 1262.5,548.0035 1262.535,548.1785 L1259,551.7135 L1259,554.0469 L1262.5,554.0469 L1262.5,551.7135 L1264.8333,551.7135 L1264.8333,550.5469 L1264.8683,550.5119 C1265.0433,550.5469 1265.23,550.5469 1265.4167,550.5469 C1267.0267,550.5469 1268.3333,549.2402 1268.3333,547.6302 C1268.3333,546.0202 1267.0267,544.7135 1265.4167,544.7135 M1266,545.8802 C1266.6417,545.8802 1267.1667,546.4052 1267.1667,547.0469 C1267.1667,547.6885 1266.6417,548.2135 1266,548.2135 C1265.3583,548.2135 1264.8333,547.6885 1264.8333,547.0469 C1264.8333,546.4052 1265.3583,545.8802 1266,545.8802 " fill="#7B68EE" style="stroke:;stroke-width:0.0;stroke-dasharray:;"/><path d="M1276.75,544.7135 C1275.14,544.7135 1273.8333,546.0202 1273.8333,547.6302 C1273.8333,547.8169 1273.8333,548.0035 1273.8683,548.1785 L1270.3333,551.7135 L1270.3333,554.0469 L1273.8333,554.0469 L1273.8333,551.7135 L1276.1667,551.7135 L1276.1667,550.5469 L1276.2017,550.5119 C1276.3767,550.5469 1276.5633,550.5469 1276.75,550.5469 C1278.36,550.5469 1279.6667,549.2402 1279.6667,547.6302 C1279.6667,546.0202 1278.36,544.7135 1276.75,544.7135 M1277.3333,545.8802 C1277.975,545.8802 1278.5,546.4052 1278.5,547.0469 C1278.5,547.6885 1277.975,548.2135 1277.3333,548.2135 C1276.6917,548.2135 1276.1667,547.6885 1276.1667,547.0469 C1276.1667,546.4052 1276.6917,545.8802 1277.3333,545.8802 " fill="#000000" style="stroke:;stroke-width:0.0;stroke-dasharray:;"/><text fill="#000000" font-family="Heiti TC" font-size="14" lengthAdjust="spacing" textLength="155" x="1284.6667" y="554.2451">gtfs_feed_id : varchar</text></g><!--class =Location--><g id="elem_=Location"><rect codeLine="81" fill="#F1F1F1" height="104.1406" id="=Location" rx="2.5" ry="2.5" style="stroke:#181818;stroke-width:0.5;" width="204" x="1055" y="7"/><rect fill="#DEDEFF" height="30.9531" rx="2.5" ry="2.5" style="stroke:#DEDEFF;stroke-width:0.5;" width="204" x="1055" y="7"/><rect fill="#DEDEFF" height="2.5" style="stroke:#DEDEFF;stroke-width:0.5;" width="204" x="1055" y="35.4531"/><rect codeLine="81" fill="none" height="104.1406" id="=Location" rx="2.5" ry="2.5" style="stroke:#181818;stroke-width:0.5;" width="204" x="1055" y="7"/><text fill="#000000" font-family="Heiti TC" font-size="18" font-weight="bold" lengthAdjust="spacing" textLength="91" x="1111.5" y="28.708">Location</text><line style="stroke:#181818;stroke-width:0.5;" x1="1056" x2="1258" y1="37.9531" y2="37.9531"/><path d="M1068.4167,45.4167 C1066.8067,45.4167 1065.5,46.7233 1065.5,48.3333 C1065.5,48.52 1065.5,48.7067 1065.535,48.8817 L1062,52.4167 L1062,54.75 L1065.5,54.75 L1065.5,52.4167 L1067.8333,52.4167 L1067.8333,51.25 L1067.8683,51.215 C1068.0433,51.25 1068.23,51.25 1068.4167,51.25 C1070.0267,51.25 1071.3333,49.9433 1071.3333,48.3333 C1071.3333,46.7233 1070.0267,45.4167 1068.4167,45.4167 M1069,46.5833 C1069.6417,46.5833 1070.1667,47.1083 1070.1667,47.75 C1070.1667,48.3917 1069.6417,48.9167 1069,48.9167 C1068.3583,48.9167 1067.8333,48.3917 1067.8333,47.75 C1067.8333,47.1083 1068.3583,46.5833 1069,46.5833 " fill="#7B68EE" style="stroke:;stroke-width:0.0;stroke-dasharray:;"/><text fill="#000000" font-family="Heiti TC" font-size="14" lengthAdjust="spacing" textLength="79" x="1076.3333" y="54.9482">id : varchar</text><text fill="#000000" font-family="Heiti TC" font-size="14" lengthAdjust="spacing" textLength="163" x="1061" y="71.2451">country_code : varchar</text><text fill="#000000" font-family="Heiti TC" font-size="14" lengthAdjust="spacing" textLength="192" x="1061" y="87.542">subdivision_name : varchar</text><text fill="#000000" font-family="Heiti TC" font-size="14" lengthAdjust="spacing" textLength="154" x="1061" y="103.8389">municipality : varchar</text></g><!--class =LocationFeed--><g id="elem_=LocationFeed"><rect codeLine="88" fill="#F1F1F1" height="71.5469" id="=LocationFeed" rx="2.5" ry="2.5" style="stroke:#181818;stroke-width:0.5;" width="182.6667" x="1501.5" y="490"/><rect fill="#DEDEFF" height="30.9531" rx="2.5" ry="2.5" style="stroke:#DEDEFF;stroke-width:0.5;" width="182.6667" x="1501.5" y="490"/><rect fill="#DEDEFF" height="2.5" style="stroke:#DEDEFF;stroke-width:0.5;" width="182.6667" x="1501.5" y="518.4531"/><rect codeLine="88" fill="none" height="71.5469" id="=LocationFeed" rx="2.5" ry="2.5" style="stroke:#181818;stroke-width:0.5;" width="182.6667" x="1501.5" y="490"/><text fill="#000000" font-family="Heiti TC" font-size="18" font-weight="bold" lengthAdjust="spacing" textLength="141" x="1522.3333" y="511.708">LocationFeed</text><line style="stroke:#181818;stroke-width:0.5;" x1="1502.5" x2="1683.1667" y1="520.9531" y2="520.9531"/><path d="M1514.9167,528.4167 C1513.3067,528.4167 1512,529.7233 1512,531.3333 C1512,531.52 1512,531.7067 1512.035,531.8817 L1508.5,535.4167 L1508.5,537.75 L1512,537.75 L1512,535.4167 L1514.3333,535.4167 L1514.3333,534.25 L1514.3683,534.215 C1514.5433,534.25 1514.73,534.25 1514.9167,534.25 C1516.5267,534.25 1517.8333,532.9433 1517.8333,531.3333 C1517.8333,529.7233 1516.5267,528.4167 1514.9167,528.4167 M1515.5,529.5833 C1516.1417,529.5833 1516.6667,530.1083 1516.6667,530.75 C1516.6667,531.3917 1516.1417,531.9167 1515.5,531.9167 C1514.8583,531.9167 1514.3333,531.3917 1514.3333,530.75 C1514.3333,530.1083 1514.8583,529.5833 1515.5,529.5833 " fill="#7B68EE" style="stroke:;stroke-width:0.0;stroke-dasharray:;"/><path d="M1526.25,528.4167 C1524.64,528.4167 1523.3333,529.7233 1523.3333,531.3333 C1523.3333,531.52 1523.3333,531.7067 1523.3683,531.8817 L1519.8333,535.4167 L1519.8333,537.75 L1523.3333,537.75 L1523.3333,535.4167 L1525.6667,535.4167 L1525.6667,534.25 L1525.7017,534.215 C1525.8767,534.25 1526.0633,534.25 1526.25,534.25 C1527.86,534.25 1529.1667,532.9433 1529.1667,531.3333 C1529.1667,529.7233 1527.86,528.4167 1526.25,528.4167 M1526.8333,529.5833 C1527.475,529.5833 1528,530.1083 1528,530.75 C1528,531.3917 1527.475,531.9167 1526.8333,531.9167 C1526.1917,531.9167 1525.6667,531.3917 1525.6667,530.75 C1525.6667,530.1083 1526.1917,529.5833 1526.8333,529.5833 " fill="#000000" style="stroke:;stroke-width:0.0;stroke-dasharray:;"/><text fill="#000000" font-family="Heiti TC" font-size="14" lengthAdjust="spacing" textLength="144" x="1534.1667" y="537.9482">location_id : varchar</text><path d="M1514.9167,544.7135 C1513.3067,544.7135 1512,546.0202 1512,547.6302 C1512,547.8169 1512,548.0035 1512.035,548.1785 L1508.5,551.7135 L1508.5,554.0469 L1512,554.0469 L1512,551.7135 L1514.3333,551.7135 L1514.3333,550.5469 L1514.3683,550.5119 C1514.5433,550.5469 1514.73,550.5469 1514.9167,550.5469 C1516.5267,550.5469 1517.8333,549.2402 1517.8333,547.6302 C1517.8333,546.0202 1516.5267,544.7135 1514.9167,544.7135 M1515.5,545.8802 C1516.1417,545.8802 1516.6667,546.4052 1516.6667,547.0469 C1516.6667,547.6885 1516.1417,548.2135 1515.5,548.2135 C1514.8583,548.2135 1514.3333,547.6885 1514.3333,547.0469 C1514.3333,546.4052 1514.8583,545.8802 1515.5,545.8802 " fill="#7B68EE" style="stroke:;stroke-width:0.0;stroke-dasharray:;"/><path d="M1526.25,544.7135 C1524.64,544.7135 1523.3333,546.0202 1523.3333,547.6302 C1523.3333,547.8169 1523.3333,548.0035 1523.3683,548.1785 L1519.8333,551.7135 L1519.8333,554.0469 L1523.3333,554.0469 L1523.3333,551.7135 L1525.6667,551.7135 L1525.6667,550.5469 L1525.7017,550.5119 C1525.8767,550.5469 1526.0633,550.5469 1526.25,550.5469 C1527.86,550.5469 1529.1667,549.2402 1529.1667,547.6302 C1529.1667,546.0202 1527.86,544.7135 1526.25,544.7135 M1526.8333,545.8802 C1527.475,545.8802 1528,546.4052 1528,547.0469 C1528,547.6885 1527.475,548.2135 1526.8333,548.2135 C1526.1917,548.2135 1525.6667,547.6885 1525.6667,547.0469 C1525.6667,546.4052 1526.1917,545.8802 1526.8333,545.8802 " fill="#000000" style="stroke:;stroke-width:0.0;stroke-dasharray:;"/><text fill="#000000" font-family="Heiti TC" font-size="14" lengthAdjust="spacing" textLength="119" x="1534.1667" y="554.2451">feed_id : varchar</text></g><!--class =ExternalID--><g id="elem_=ExternalID"><rect codeLine="93" fill="#F1F1F1" height="87.8438" id="=ExternalID" rx="2.5" ry="2.5" style="stroke:#181818;stroke-width:0.5;" width="189.3333" x="235.5" y="482"/><rect fill="#DEDEFF" height="30.9531" rx="2.5" ry="2.5" style="stroke:#DEDEFF;stroke-width:0.5;" width="189.3333" x="235.5" y="482"/><rect fill="#DEDEFF" height="2.5" style="stroke:#DEDEFF;stroke-width:0.5;" width="189.3333" x="235.5" y="510.4531"/><rect codeLine="93" fill="none" height="87.8438" id="=ExternalID" rx="2.5" ry="2.5" style="stroke:#181818;stroke-width:0.5;" width="189.3333" x="235.5" y="482"/><text fill="#000000" font-family="Heiti TC" font-size="18" font-weight="bold" lengthAdjust="spacing" textLength="111" x="274.6667" y="503.708">ExternalID</text><line style="stroke:#181818;stroke-width:0.5;" x1="236.5" x2="423.8333" y1="512.9531" y2="512.9531"/><path d="M248.9167,520.4167 C247.3067,520.4167 246,521.7233 246,523.3333 C246,523.52 246,523.7067 246.035,523.8817 L242.5,527.4167 L242.5,529.75 L246,529.75 L246,527.4167 L248.3333,527.4167 L248.3333,526.25 L248.3683,526.215 C248.5433,526.25 248.73,526.25 248.9167,526.25 C250.5267,526.25 251.8333,524.9433 251.8333,523.3333 C251.8333,521.7233 250.5267,520.4167 248.9167,520.4167 M249.5,521.5833 C250.1417,521.5833 250.6667,522.1083 250.6667,522.75 C250.6667,523.3917 250.1417,523.9167 249.5,523.9167 C248.8583,523.9167 248.3333,523.3917 248.3333,522.75 C248.3333,522.1083 248.8583,521.5833 249.5,521.5833 " fill="#7B68EE" style="stroke:;stroke-width:0.0;stroke-dasharray:;"/><path d="M260.25,520.4167 C258.64,520.4167 257.3333,521.7233 257.3333,523.3333 C257.3333,523.52 257.3333,523.7067 257.3683,523.8817 L253.8333,527.4167 L253.8333,529.75 L257.3333,529.75 L257.3333,527.4167 L259.6667,527.4167 L259.6667,526.25 L259.7017,526.215 C259.8767,526.25 260.0633,526.25 260.25,526.25 C261.86,526.25 263.1667,524.9433 263.1667,523.3333 C263.1667,521.7233 261.86,520.4167 260.25,520.4167 M260.8333,521.5833 C261.475,521.5833 262,522.1083 262,522.75 C262,523.3917 261.475,523.9167 260.8333,523.9167 C260.1917,523.9167 259.6667,523.3917 259.6667,522.75 C259.6667,522.1083 260.1917,521.5833 260.8333,521.5833 " fill="#000000" style="stroke:;stroke-width:0.0;stroke-dasharray:;"/><text fill="#000000" font-family="Heiti TC" font-size="14" lengthAdjust="spacing" textLength="119" x="268.1667" y="529.9482">feed_id : varchar</text><path d="M248.9167,536.7135 C247.3067,536.7135 246,538.0202 246,539.6302 C246,539.8169 246,540.0035 246.035,540.1785 L242.5,543.7135 L242.5,546.0469 L246,546.0469 L246,543.7135 L248.3333,543.7135 L248.3333,542.5469 L248.3683,542.5119 C248.5433,542.5469 248.73,542.5469 248.9167,542.5469 C250.5267,542.5469 251.8333,541.2402 251.8333,539.6302 C251.8333,538.0202 250.5267,536.7135 248.9167,536.7135 M249.5,537.8802 C250.1417,537.8802 250.6667,538.4052 250.6667,539.0469 C250.6667,539.6885 250.1417,540.2135 249.5,540.2135 C248.8583,540.2135 248.3333,539.6885 248.3333,539.0469 C248.3333,538.4052 248.8583,537.8802 249.5,537.8802 " fill="#7B68EE" style="stroke:;stroke-width:0.0;stroke-dasharray:;"/><text fill="#000000" font-family="Heiti TC" font-size="14" lengthAdjust="spacing" textLength="162" x="256.8333" y="546.2451">associated_id : varchar</text><text fill="#000000" font-family="Heiti TC" font-size="14" lengthAdjust="spacing" textLength="113" x="241.5" y="562.542">source : varchar</text></g><!--class =GTFSDataset--><g id="elem_=GTFSDataset"><rect codeLine="99" fill="#F1F1F1" height="218.2188" id="=GTFSDataset" rx="2.5" ry="2.5" style="stroke:#181818;stroke-width:0.5;" width="216" x="874" y="187.5"/><rect fill="#DEDEFF" height="30.9531" rx="2.5" ry="2.5" style="stroke:#DEDEFF;stroke-width:0.5;" width="216" x="874" y="187.5"/><rect fill="#DEDEFF" height="2.5" style="stroke:#DEDEFF;stroke-width:0.5;" width="216" x="874" y="215.9531"/><rect codeLine="99" fill="none" height="218.2188" id="=GTFSDataset" rx="2.5" ry="2.5" style="stroke:#181818;stroke-width:0.5;" width="216" x="874" y="187.5"/><text fill="#000000" font-family="Heiti TC" font-size="18" font-weight="bold" lengthAdjust="spacing" textLength="137" x="913.5" y="209.208">GTFSDataset</text><line style="stroke:#181818;stroke-width:0.5;" x1="875" x2="1089" y1="218.4531" y2="218.4531"/><path d="M887.4167,225.9167 C885.8067,225.9167 884.5,227.2233 884.5,228.8333 C884.5,229.02 884.5,229.2067 884.535,229.3817 L881,232.9167 L881,235.25 L884.5,235.25 L884.5,232.9167 L886.8333,232.9167 L886.8333,231.75 L886.8683,231.715 C887.0433,231.75 887.23,231.75 887.4167,231.75 C889.0267,231.75 890.3333,230.4433 890.3333,228.8333 C890.3333,227.2233 889.0267,225.9167 887.4167,225.9167 M888,227.0833 C888.6417,227.0833 889.1667,227.6083 889.1667,228.25 C889.1667,228.8917 888.6417,229.4167 888,229.4167 C887.3583,229.4167 886.8333,228.8917 886.8333,228.25 C886.8333,227.6083 887.3583,227.0833 888,227.0833 " fill="#7B68EE" style="stroke:;stroke-width:0.0;stroke-dasharray:;"/><text fill="#000000" font-family="Heiti TC" font-size="14" lengthAdjust="spacing" textLength="79" x="895.3333" y="235.4482">id : varchar</text><path d="M887.4167,242.2135 C885.8067,242.2135 884.5,243.5202 884.5,245.1302 C884.5,245.3169 884.5,245.5035 884.535,245.6785 L881,249.2135 L881,251.5469 L884.5,251.5469 L884.5,249.2135 L886.8333,249.2135 L886.8333,248.0469 L886.8683,248.0119 C887.0433,248.0469 887.23,248.0469 887.4167,248.0469 C889.0267,248.0469 890.3333,246.7402 890.3333,245.1302 C890.3333,243.5202 889.0267,242.2135 887.4167,242.2135 M888,243.3802 C888.6417,243.3802 889.1667,243.9052 889.1667,244.5469 C889.1667,245.1885 888.6417,245.7135 888,245.7135 C887.3583,245.7135 886.8333,245.1885 886.8333,244.5469 C886.8333,243.9052 887.3583,243.3802 888,243.3802 " fill="#000000" style="stroke:;stroke-width:0.0;stroke-dasharray:;"/><text fill="#000000" font-family="Heiti TC" font-size="14" lengthAdjust="spacing" textLength="119" x="895.3333" y="251.7451">feed_id : varchar</text><text fill="#000000" font-family="Heiti TC" font-size="14" lengthAdjust="spacing" textLength="113" x="880" y="268.042">latest : boolean</text><text fill="#000000" font-family="Heiti TC" font-size="14" lengthAdjust="spacing" textLength="187" x="880" y="284.3389">bounding_box : Geometry</text><text fill="#000000" font-family="Heiti TC" font-size="14" lengthAdjust="spacing" textLength="141" x="880" y="300.6357">hosted_url : varchar</text><text fill="#000000" font-family="Heiti TC" font-size="14" lengthAdjust="spacing" textLength="100" x="880" y="316.9326">note : varchar</text><text fill="#000000" font-family="Heiti TC" font-size="14" lengthAdjust="spacing" textLength="99" x="880" y="333.2295">hash : varchar</text><text fill="#000000" font-family="Heiti TC" font-size="14" lengthAdjust="spacing" textLength="188" x="880" y="349.5264">download_date : datetime</text><text fill="#000000" font-family="Heiti TC" font-size="14" lengthAdjust="spacing" textLength="180" x="880" y="365.8232">creation_date : datetime</text><text fill="#000000" font-family="Heiti TC" font-size="14" lengthAdjust="spacing" textLength="204" x="880" y="382.1201">last_update_date : datetime</text><text fill="#000000" font-family="Heiti TC" font-size="14" lengthAdjust="spacing" textLength="131" x="880" y="398.417">stable_id : varchar</text></g><!--class =LocationGTFSDataset--><g id="elem_=LocationGTFSDataset"><rect codeLine="113" fill="#F1F1F1" height="71.5469" id="=LocationGTFSDataset" rx="2.5" ry="2.5" style="stroke:#181818;stroke-width:0.5;" width="234" x="605" y="260.5"/><rect fill="#DEDEFF" height="30.9531" rx="2.5" ry="2.5" style="stroke:#DEDEFF;stroke-width:0.5;" width="234" x="605" y="260.5"/><rect fill="#DEDEFF" height="2.5" style="stroke:#DEDEFF;stroke-width:0.5;" width="234" x="605" y="288.9531"/><rect codeLine="113" fill="none" height="71.5469" id="=LocationGTFSDataset" rx="2.5" ry="2.5" style="stroke:#181818;stroke-width:0.5;" width="234" x="605" y="260.5"/><text fill="#000000" font-family="Heiti TC" font-size="18" font-weight="bold" lengthAdjust="spacing" textLength="228" x="608" y="282.208">LocationGTFSDataset</text><line style="stroke:#181818;stroke-width:0.5;" x1="606" x2="838" y1="291.4531" y2="291.4531"/><path d="M618.4167,298.9167 C616.8067,298.9167 615.5,300.2233 615.5,301.8333 C615.5,302.02 615.5,302.2067 615.535,302.3817 L612,305.9167 L612,308.25 L615.5,308.25 L615.5,305.9167 L617.8333,305.9167 L617.8333,304.75 L617.8683,304.715 C618.0433,304.75 618.23,304.75 618.4167,304.75 C620.0267,304.75 621.3333,303.4433 621.3333,301.8333 C621.3333,300.2233 620.0267,298.9167 618.4167,298.9167 M619,300.0833 C619.6417,300.0833 620.1667,300.6083 620.1667,301.25 C620.1667,301.8917 619.6417,302.4167 619,302.4167 C618.3583,302.4167 617.8333,301.8917 617.8333,301.25 C617.8333,300.6083 618.3583,300.0833 619,300.0833 " fill="#7B68EE" style="stroke:;stroke-width:0.0;stroke-dasharray:;"/><path d="M629.75,298.9167 C628.14,298.9167 626.8333,300.2233 626.8333,301.8333 C626.8333,302.02 626.8333,302.2067 626.8683,302.3817 L623.3333,305.9167 L623.3333,308.25 L626.8333,308.25 L626.8333,305.9167 L629.1667,305.9167 L629.1667,304.75 L629.2017,304.715 C629.3767,304.75 629.5633,304.75 629.75,304.75 C631.36,304.75 632.6667,303.4433 632.6667,301.8333 C632.6667,300.2233 631.36,298.9167 629.75,298.9167 M630.3333,300.0833 C630.975,300.0833 631.5,300.6083 631.5,301.25 C631.5,301.8917 630.975,302.4167 630.3333,302.4167 C629.6917,302.4167 629.1667,301.8917 629.1667,301.25 C629.1667,300.6083 629.6917,300.0833 630.3333,300.0833 " fill="#000000" style="stroke:;stroke-width:0.0;stroke-dasharray:;"/><text fill="#000000" font-family="Heiti TC" font-size="14" lengthAdjust="spacing" textLength="144" x="637.6667" y="308.4482">location_id : varchar</text><path d="M618.4167,315.2135 C616.8067,315.2135 615.5,316.5202 615.5,318.1302 C615.5,318.3169 615.5,318.5035 615.535,318.6785 L612,322.2135 L612,324.5469 L615.5,324.5469 L615.5,322.2135 L617.8333,322.2135 L617.8333,321.0469 L617.8683,321.0119 C618.0433,321.0469 618.23,321.0469 618.4167,321.0469 C620.0267,321.0469 621.3333,319.7402 621.3333,318.1302 C621.3333,316.5202 620.0267,315.2135 618.4167,315.2135 M619,316.3802 C619.6417,316.3802 620.1667,316.9052 620.1667,317.5469 C620.1667,318.1885 619.6417,318.7135 619,318.7135 C618.3583,318.7135 617.8333,318.1885 617.8333,317.5469 C617.8333,316.9052 618.3583,316.3802 619,316.3802 " fill="#7B68EE" style="stroke:;stroke-width:0.0;stroke-dasharray:;"/><path d="M629.75,315.2135 C628.14,315.2135 626.8333,316.5202 626.8333,318.1302 C626.8333,318.3169 626.8333,318.5035 626.8683,318.6785 L623.3333,322.2135 L623.3333,324.5469 L626.8333,324.5469 L626.8333,322.2135 L629.1667,322.2135 L629.1667,321.0469 L629.2017,321.0119 C629.3767,321.0469 629.5633,321.0469 629.75,321.0469 C631.36,321.0469 632.6667,319.7402 632.6667,318.1302 C632.6667,316.5202 631.36,315.2135 629.75,315.2135 M630.3333,316.3802 C630.975,316.3802 631.5,316.9052 631.5,317.5469 C631.5,318.1885 630.975,318.7135 630.3333,318.7135 C629.6917,318.7135 629.1667,318.1885 629.1667,317.5469 C629.1667,316.9052 629.6917,316.3802 630.3333,316.3802 " fill="#000000" style="stroke:;stroke-width:0.0;stroke-dasharray:;"/><text fill="#000000" font-family="Heiti TC" font-size="14" lengthAdjust="spacing" textLength="141" x="637.6667" y="324.7451">dataset_id : varchar</text></g><!--class =Component--><g id="elem_=Component"><rect codeLine="118" fill="#F1F1F1" height="55.25" id="=Component" rx="2.5" ry="2.5" style="stroke:#181818;stroke-width:0.5;" width="133.3333" x="1083.5" y="498.5"/><rect fill="#DEDEFF" height="30.9531" rx="2.5" ry="2.5" style="stroke:#DEDEFF;stroke-width:0.5;" width="133.3333" x="1083.5" y="498.5"/><rect fill="#DEDEFF" height="2.5" style="stroke:#DEDEFF;stroke-width:0.5;" width="133.3333" x="1083.5" y="526.9531"/><rect codeLine="118" fill="none" height="55.25" id="=Component" rx="2.5" ry="2.5" style="stroke:#181818;stroke-width:0.5;" width="133.3333" x="1083.5" y="498.5"/><text fill="#000000" font-family="Heiti TC" font-size="18" font-weight="bold" lengthAdjust="spacing" textLength="118" x="1091.1667" y="520.208">Component</text><line style="stroke:#181818;stroke-width:0.5;" x1="1084.5" x2="1215.8333" y1="529.4531" y2="529.4531"/><path d="M1096.9167,536.9167 C1095.3067,536.9167 1094,538.2233 1094,539.8333 C1094,540.02 1094,540.2067 1094.035,540.3817 L1090.5,543.9167 L1090.5,546.25 L1094,546.25 L1094,543.9167 L1096.3333,543.9167 L1096.3333,542.75 L1096.3683,542.715 C1096.5433,542.75 1096.73,542.75 1096.9167,542.75 C1098.5267,542.75 1099.8333,541.4433 1099.8333,539.8333 C1099.8333,538.2233 1098.5267,536.9167 1096.9167,536.9167 M1097.5,538.0833 C1098.1417,538.0833 1098.6667,538.6083 1098.6667,539.25 C1098.6667,539.8917 1098.1417,540.4167 1097.5,540.4167 C1096.8583,540.4167 1096.3333,539.8917 1096.3333,539.25 C1096.3333,538.6083 1096.8583,538.0833 1097.5,538.0833 " fill="#7B68EE" style="stroke:;stroke-width:0.0;stroke-dasharray:;"/><text fill="#000000" font-family="Heiti TC" font-size="14" lengthAdjust="spacing" textLength="106" x="1104.8333" y="546.4482">name : varchar</text></g><!--class =ComponentGTFSDataset--><g id="elem_=ComponentGTFSDataset"><rect codeLine="122" fill="#F1F1F1" height="71.5469" id="=ComponentGTFSDataset" rx="2.5" ry="2.5" style="stroke:#181818;stroke-width:0.5;" width="261" x="1125.5" y="260.5"/><rect fill="#DEDEFF" height="30.9531" rx="2.5" ry="2.5" style="stroke:#DEDEFF;stroke-width:0.5;" width="261" x="1125.5" y="260.5"/><rect fill="#DEDEFF" height="2.5" style="stroke:#DEDEFF;stroke-width:0.5;" width="261" x="1125.5" y="288.9531"/><rect codeLine="122" fill="none" height="71.5469" id="=ComponentGTFSDataset" rx="2.5" ry="2.5" style="stroke:#181818;stroke-width:0.5;" width="261" x="1125.5" y="260.5"/><text fill="#000000" font-family="Heiti TC" font-size="18" font-weight="bold" lengthAdjust="spacing" textLength="255" x="1128.5" y="282.208">ComponentGTFSDataset</text><line style="stroke:#181818;stroke-width:0.5;" x1="1126.5" x2="1385.5" y1="291.4531" y2="291.4531"/><path d="M1138.9167,298.9167 C1137.3067,298.9167 1136,300.2233 1136,301.8333 C1136,302.02 1136,302.2067 1136.035,302.3817 L1132.5,305.9167 L1132.5,308.25 L1136,308.25 L1136,305.9167 L1138.3333,305.9167 L1138.3333,304.75 L1138.3683,304.715 C1138.5433,304.75 1138.73,304.75 1138.9167,304.75 C1140.5267,304.75 1141.8333,303.4433 1141.8333,301.8333 C1141.8333,300.2233 1140.5267,298.9167 1138.9167,298.9167 M1139.5,300.0833 C1140.1417,300.0833 1140.6667,300.6083 1140.6667,301.25 C1140.6667,301.8917 1140.1417,302.4167 1139.5,302.4167 C1138.8583,302.4167 1138.3333,301.8917 1138.3333,301.25 C1138.3333,300.6083 1138.8583,300.0833 1139.5,300.0833 " fill="#7B68EE" style="stroke:;stroke-width:0.0;stroke-dasharray:;"/><path d="M1150.25,298.9167 C1148.64,298.9167 1147.3333,300.2233 1147.3333,301.8333 C1147.3333,302.02 1147.3333,302.2067 1147.3683,302.3817 L1143.8333,305.9167 L1143.8333,308.25 L1147.3333,308.25 L1147.3333,305.9167 L1149.6667,305.9167 L1149.6667,304.75 L1149.7017,304.715 C1149.8767,304.75 1150.0633,304.75 1150.25,304.75 C1151.86,304.75 1153.1667,303.4433 1153.1667,301.8333 C1153.1667,300.2233 1151.86,298.9167 1150.25,298.9167 M1150.8333,300.0833 C1151.475,300.0833 1152,300.6083 1152,301.25 C1152,301.8917 1151.475,302.4167 1150.8333,302.4167 C1150.1917,302.4167 1149.6667,301.8917 1149.6667,301.25 C1149.6667,300.6083 1150.1917,300.0833 1150.8333,300.0833 " fill="#000000" style="stroke:;stroke-width:0.0;stroke-dasharray:;"/><text fill="#000000" font-family="Heiti TC" font-size="14" lengthAdjust="spacing" textLength="150" x="1158.1667" y="308.4482">component : varchar</text><path d="M1138.9167,315.2135 C1137.3067,315.2135 1136,316.5202 1136,318.1302 C1136,318.3169 1136,318.5035 1136.035,318.6785 L1132.5,322.2135 L1132.5,324.5469 L1136,324.5469 L1136,322.2135 L1138.3333,322.2135 L1138.3333,321.0469 L1138.3683,321.0119 C1138.5433,321.0469 1138.73,321.0469 1138.9167,321.0469 C1140.5267,321.0469 1141.8333,319.7402 1141.8333,318.1302 C1141.8333,316.5202 1140.5267,315.2135 1138.9167,315.2135 M1139.5,316.3802 C1140.1417,316.3802 1140.6667,316.9052 1140.6667,317.5469 C1140.6667,318.1885 1140.1417,318.7135 1139.5,318.7135 C1138.8583,318.7135 1138.3333,318.1885 1138.3333,317.5469 C1138.3333,316.9052 1138.8583,316.3802 1139.5,316.3802 " fill="#7B68EE" style="stroke:;stroke-width:0.0;stroke-dasharray:;"/><path d="M1150.25,315.2135 C1148.64,315.2135 1147.3333,316.5202 1147.3333,318.1302 C1147.3333,318.3169 1147.3333,318.5035 1147.3683,318.6785 L1143.8333,322.2135 L1143.8333,324.5469 L1147.3333,324.5469 L1147.3333,322.2135 L1149.6667,322.2135 L1149.6667,321.0469 L1149.7017,321.0119 C1149.8767,321.0469 1150.0633,321.0469 1150.25,321.0469 C1151.86,321.0469 1153.1667,319.7402 1153.1667,318.1302 C1153.1667,316.5202 1151.86,315.2135 1150.25,315.2135 M1150.8333,316.3802 C1151.475,316.3802 1152,316.9052 1152,317.5469 C1152,318.1885 1151.475,318.7135 1150.8333,318.7135 C1150.1917,318.7135 1149.6667,318.1885 1149.6667,317.5469 C1149.6667,316.9052 1150.1917,316.3802 1150.8333,316.3802 " fill="#000000" style="stroke:;stroke-width:0.0;stroke-dasharray:;"/><text fill="#000000" font-family="Heiti TC" font-size="14" lengthAdjust="spacing" textLength="141" x="1158.1667" y="324.7451">dataset_id : varchar</text></g><!--class =RedirectingID--><g id="elem_=RedirectingID"><rect codeLine="127" fill="#F1F1F1" height="71.5469" id="=RedirectingID" rx="2.5" ry="2.5" style="stroke:#181818;stroke-width:0.5;" width="171.6667" x="460" y="490"/><rect fill="#DEDEFF" height="30.9531" rx="2.5" ry="2.5" style="stroke:#DEDEFF;stroke-width:0.5;" width="171.6667" x="460" y="490"/><rect fill="#DEDEFF" height="2.5" style="stroke:#DEDEFF;stroke-width:0.5;" width="171.6667" x="460" y="518.4531"/><rect codeLine="127" fill="none" height="71.5469" id="=RedirectingID" rx="2.5" ry="2.5" style="stroke:#181818;stroke-width:0.5;" width="171.6667" x="460" y="490"/><text fill="#000000" font-family="Heiti TC" font-size="18" font-weight="bold" lengthAdjust="spacing" textLength="144" x="473.8333" y="511.708">RedirectingID</text><line style="stroke:#181818;stroke-width:0.5;" x1="461" x2="630.6667" y1="520.9531" y2="520.9531"/><path d="M473.4167,528.4167 C471.8067,528.4167 470.5,529.7233 470.5,531.3333 C470.5,531.52 470.5,531.7067 470.535,531.8817 L467,535.4167 L467,537.75 L470.5,537.75 L470.5,535.4167 L472.8333,535.4167 L472.8333,534.25 L472.8683,534.215 C473.0433,534.25 473.23,534.25 473.4167,534.25 C475.0267,534.25 476.3333,532.9433 476.3333,531.3333 C476.3333,529.7233 475.0267,528.4167 473.4167,528.4167 M474,529.5833 C474.6417,529.5833 475.1667,530.1083 475.1667,530.75 C475.1667,531.3917 474.6417,531.9167 474,531.9167 C473.3583,531.9167 472.8333,531.3917 472.8333,530.75 C472.8333,530.1083 473.3583,529.5833 474,529.5833 " fill="#7B68EE" style="stroke:;stroke-width:0.0;stroke-dasharray:;"/><path d="M484.75,528.4167 C483.14,528.4167 481.8333,529.7233 481.8333,531.3333 C481.8333,531.52 481.8333,531.7067 481.8683,531.8817 L478.3333,535.4167 L478.3333,537.75 L481.8333,537.75 L481.8333,535.4167 L484.1667,535.4167 L484.1667,534.25 L484.2017,534.215 C484.3767,534.25 484.5633,534.25 484.75,534.25 C486.36,534.25 487.6667,532.9433 487.6667,531.3333 C487.6667,529.7233 486.36,528.4167 484.75,528.4167 M485.3333,529.5833 C485.975,529.5833 486.5,530.1083 486.5,530.75 C486.5,531.3917 485.975,531.9167 485.3333,531.9167 C484.6917,531.9167 484.1667,531.3917 484.1667,530.75 C484.1667,530.1083 484.6917,529.5833 485.3333,529.5833 " fill="#000000" style="stroke:;stroke-width:0.0;stroke-dasharray:;"/><text fill="#000000" font-family="Heiti TC" font-size="14" lengthAdjust="spacing" textLength="133" x="492.6667" y="537.9482">source_id : varchar</text><path d="M473.4167,544.7135 C471.8067,544.7135 470.5,546.0202 470.5,547.6302 C470.5,547.8169 470.5,548.0035 470.535,548.1785 L467,551.7135 L467,554.0469 L470.5,554.0469 L470.5,551.7135 L472.8333,551.7135 L472.8333,550.5469 L472.8683,550.5119 C473.0433,550.5469 473.23,550.5469 473.4167,550.5469 C475.0267,550.5469 476.3333,549.2402 476.3333,547.6302 C476.3333,546.0202 475.0267,544.7135 473.4167,544.7135 M474,545.8802 C474.6417,545.8802 475.1667,546.4052 475.1667,547.0469 C475.1667,547.6885 474.6417,548.2135 474,548.2135 C473.3583,548.2135 472.8333,547.6885 472.8333,547.0469 C472.8333,546.4052 473.3583,545.8802 474,545.8802 " fill="#7B68EE" style="stroke:;stroke-width:0.0;stroke-dasharray:;"/><path d="M484.75,544.7135 C483.14,544.7135 481.8333,546.0202 481.8333,547.6302 C481.8333,547.8169 481.8333,548.0035 481.8683,548.1785 L478.3333,551.7135 L478.3333,554.0469 L481.8333,554.0469 L481.8333,551.7135 L484.1667,551.7135 L484.1667,550.5469 L484.2017,550.5119 C484.3767,550.5469 484.5633,550.5469 484.75,550.5469 C486.36,550.5469 487.6667,549.2402 487.6667,547.6302 C487.6667,546.0202 486.36,544.7135 484.75,544.7135 M485.3333,545.8802 C485.975,545.8802 486.5,546.4052 486.5,547.0469 C486.5,547.6885 485.975,548.2135 485.3333,548.2135 C484.6917,548.2135 484.1667,547.6885 484.1667,547.0469 C484.1667,546.4052 484.6917,545.8802 485.3333,545.8802 " fill="#000000" style="stroke:;stroke-width:0.0;stroke-dasharray:;"/><text fill="#000000" font-family="Heiti TC" font-size="14" lengthAdjust="spacing" textLength="132" x="492.6667" y="554.2451">target_id : varchar</text></g><!--link =FeedHistory to =Feed--><g id="link_=FeedHistory_=Feed"><path codeLine="132" d="M279.363,296.5 C285.419,296.5 291.475,296.5 297.532,296.5 " fill="none" id="=FeedHistory-=Feed" style="stroke:#181818;stroke-width:1.0;"/><line style="stroke:#181818;stroke-width:1.0;" x1="279.272" x2="271.272" y1="296.5" y2="302.5"/><line style="stroke:#181818;stroke-width:1.0;" x1="279.272" x2="271.272" y1="296.5" y2="290.5"/><line style="stroke:#181818;stroke-width:1.0;" x1="279.272" x2="271.272" y1="296.5" y2="296.5"/><ellipse cx="285.272" cy="296.5" fill="none" rx="4" ry="4" style="stroke:#181818;stroke-width:1.0;"/><line style="stroke:#181818;stroke-width:1.0;" x1="301.79" x2="301.79" y1="292.5" y2="300.5"/><line style="stroke:#181818;stroke-width:1.0;" x1="298.79" x2="298.79" y1="292.5" y2="300.5"/><line style="stroke:#181818;stroke-width:1.0;" x1="297.79" x2="305.79" y1="296.5" y2="296.5"/></g><!--link =Feed to =GTFSRealtimeFeed--><g id="link_=Feed_=GTFSRealtimeFeed"><path codeLine="133" d="M577.125,415.503 C580.419,417.726 583.713,419.895 587,422 C632.148,450.914 686.678,476.764 729.779,495.335 " fill="none" id="=Feed-=GTFSRealtimeFeed" style="stroke:#181818;stroke-width:1.0;"/><line style="stroke:#181818;stroke-width:1.0;" x1="571.4015" x2="575.9261" y1="416.4271" y2="409.8295"/><line style="stroke:#181818;stroke-width:1.0;" x1="573.8756" x2="578.4002" y1="418.1238" y2="411.5262"/><line style="stroke:#181818;stroke-width:1.0;" x1="576.9626" x2="570.365" y1="415.3906" y2="410.866"/><line style="stroke:#181818;stroke-width:1.0;" x1="727.0271" x2="737.141" y1="494.1587" y2="498.484"/><ellipse cx="727.0271" cy="494.1587" fill="none" rx="4" ry="4" style="stroke:#181818;stroke-width:1.0;"/><line style="stroke:#181818;stroke-width:1.0;" x1="735.036" x2="731.8904" y1="493.2334" y2="500.589"/></g><!--link =Feed to =GTFSFeed--><g id="link_=Feed_=GTFSFeed"><path codeLine="134" d="M547.97,173.714 C565.506,160.423 584.51,148.883 604.5,141 C685.331,109.124 1310.77,98.404 1386.5,141 C1431.87,166.519 1457.99,223.612 1470.84,261.059 " fill="none" id="=Feed-=GTFSFeed" style="stroke:#181818;stroke-width:1.0;"/><line style="stroke:#181818;stroke-width:1.0;" x1="547.1891" x2="542.2781" y1="179.3881" y2="173.0729"/><line style="stroke:#181818;stroke-width:1.0;" x1="549.5573" x2="544.6463" y1="177.5464" y2="171.2312"/><line style="stroke:#181818;stroke-width:1.0;" x1="547.8912" x2="541.576" y1="173.775" y2="178.686"/><line style="stroke:#181818;stroke-width:1.0;" x1="1469.9174" x2="1473.38" y1="258.2932" y2="268.734"/><ellipse cx="1469.9174" cy="258.2932" fill="none" rx="4" ry="4" style="stroke:#181818;stroke-width:1.0;"/><line style="stroke:#181818;stroke-width:1.0;" x1="1475.9175" x2="1468.3242" y1="263.6782" y2="266.1965"/></g><!--link =Feed to =RedirectingID--><g id="link_=Feed_=RedirectingID"><path codeLine="135" d="M496.937,421.649 C507.295,443.469 517.409,464.774 525.737,482.317 " fill="none" id="=Feed-=RedirectingID" style="stroke:#181818;stroke-width:1.0;"/><line style="stroke:#181818;stroke-width:1.0;" x1="496.8553" x2="486.1972" y1="421.4758" y2="414.249"/><line style="stroke:#181818;stroke-width:1.0;" x1="496.8553" x2="500.6508" y1="421.4758" y2="414.249"/><line style="stroke:#181818;stroke-width:1.0;" x1="496.8553" x2="493.424" y1="421.4758" y2="414.249"/><line style="stroke:#181818;stroke-width:1.0;" x1="525.7629" x2="534.6135" y1="482.3687" y2="487.0234"/><line style="stroke:#181818;stroke-width:1.0;" x1="525.7629" x2="523.7725" y1="482.3687" y2="492.1686"/><line style="stroke:#181818;stroke-width:1.0;" x1="525.7629" x2="529.193" y1="482.3687" y2="489.596"/><ellipse cx="523.1903" cy="476.9482" fill="none" rx="4" ry="4" style="stroke:#181818;stroke-width:1.0;"/></g><!--link =Feed to =ExternalID--><g id="link_=Feed_=ExternalID"><path codeLine="136" d="M379.078,421.618 C370.231,440.255 361.561,458.517 354.03,474.381 " fill="none" id="=Feed-=ExternalID" style="stroke:#181818;stroke-width:1.0;"/><line style="stroke:#181818;stroke-width:1.0;" x1="377.247" x2="384.4738" y1="416.1468" y2="419.578"/><line style="stroke:#181818;stroke-width:1.0;" x1="375.9603" x2="383.187" y1="418.8568" y2="422.2881"/><line style="stroke:#181818;stroke-width:1.0;" x1="379.1447" x2="382.576" y1="421.4758" y2="414.249"/><line style="stroke:#181818;stroke-width:1.0;" x1="353.8591" x2="355.8495" y1="474.7407" y2="484.5406"/><line style="stroke:#181818;stroke-width:1.0;" x1="353.8591" x2="345.0085" y1="474.7407" y2="479.3954"/><line style="stroke:#181818;stroke-width:1.0;" x1="353.8591" x2="350.429" y1="474.7407" y2="481.968"/><ellipse cx="356.4317" cy="469.3202" fill="none" rx="4" ry="4" style="stroke:#181818;stroke-width:1.0;"/></g><!--link =GTFSRealtimeFeed to =EntityTypeFeed--><g id="link_=GTFSRealtimeFeed_=EntityTypeFeed"><path codeLine="137" d="M804,553.608 C804,572.93 804,599.494 804,621.8348 " fill="none" id="=GTFSRealtimeFeed-to-=EntityTypeFeed" style="stroke:#181818;stroke-width:1.0;"/><line style="stroke:#181818;stroke-width:1.0;" x1="804" x2="810" y1="621.8532" y2="629.8532"/><line style="stroke:#181818;stroke-width:1.0;" x1="804" x2="798" y1="621.8532" y2="629.8532"/><line style="stroke:#181818;stroke-width:1.0;" x1="804" x2="804" y1="621.8532" y2="629.8532"/><ellipse cx="804" cy="615.8532" fill="none" rx="4" ry="4" style="stroke:#181818;stroke-width:1.0;"/></g><!--reverse link =EntityTypeFeed to =EntityType--><g id="link_=EntityTypeFeed_=EntityType"><path codeLine="138" d="M910.077,666 C919.215,666 928.353,666 937.492,666 " fill="none" id="=EntityTypeFeed-backto-=EntityType" style="stroke:#181818;stroke-width:1.0;"/><line style="stroke:#181818;stroke-width:1.0;" x1="910.047" x2="902.047" y1="666" y2="672"/><line style="stroke:#181818;stroke-width:1.0;" x1="910.047" x2="902.047" y1="666" y2="660"/><line style="stroke:#181818;stroke-width:1.0;" x1="910.047" x2="902.047" y1="666" y2="666"/><line style="stroke:#181818;stroke-width:1.0;" x1="912.047" x2="912.047" y1="670" y2="662"/></g><!--link =GTFSRealtimeFeed to =FeedReference--><g id="link_=GTFSRealtimeFeed_=FeedReference"><path codeLine="139" d="M874.866,495.409 C957.489,463.856 1097.87,423.035 1216.5,452 C1244.6,458.861 1273.33,472.316 1297.56,485.894 " fill="none" id="=GTFSRealtimeFeed-=FeedReference" style="stroke:#181818;stroke-width:1.0;"/><line style="stroke:#181818;stroke-width:1.0;" x1="874.5144" x2="869.2173" y1="495.5443" y2="504.0261"/><line style="stroke:#181818;stroke-width:1.0;" x1="874.5144" x2="864.8887" y1="495.5443" y2="492.8339"/><line style="stroke:#181818;stroke-width:1.0;" x1="874.5144" x2="867.053" y1="495.5443" y2="498.43"/><line style="stroke:#181818;stroke-width:1.0;" x1="877.8226" x2="874.9369" y1="498.5536" y2="491.0922"/><line style="stroke:#181818;stroke-width:1.0;" x1="1297.6483" x2="1307.5692" y1="485.9531" y2="484.6982"/><line style="stroke:#181818;stroke-width:1.0;" x1="1297.6483" x2="1301.6308" y1="485.9531" y2="495.1258"/><line style="stroke:#181818;stroke-width:1.0;" x1="1297.6483" x2="1304.6" y1="485.9531" y2="489.912"/><ellipse cx="1292.4345" cy="482.9838" fill="none" rx="4" ry="4" style="stroke:#181818;stroke-width:1.0;"/></g><!--link =GTFSFeed to =FeedReference--><g id="link_=GTFSFeed_=FeedReference"><path codeLine="140" d="M1462.98,331.101 C1441.4,371.35 1405.22,438.818 1381.73,482.612 " fill="none" id="=GTFSFeed-=FeedReference" style="stroke:#181818;stroke-width:1.0;"/><line style="stroke:#181818;stroke-width:1.0;" x1="1462.9856" x2="1461.4838" y1="331.0903" y2="321.2037"/><line style="stroke:#181818;stroke-width:1.0;" x1="1462.9856" x2="1472.0562" y1="331.0903" y2="326.8803"/><line style="stroke:#181818;stroke-width:1.0;" x1="1462.9856" x2="1466.77" y1="331.0903" y2="324.042"/><ellipse cx="1460.1474" cy="336.3765" fill="none" rx="4" ry="4" style="stroke:#181818;stroke-width:1.0;"/><line style="stroke:#181818;stroke-width:1.0;" x1="1381.7144" x2="1383.2162" y1="482.6487" y2="492.5353"/><line style="stroke:#181818;stroke-width:1.0;" x1="1381.7144" x2="1372.6438" y1="482.6487" y2="486.8587"/><line style="stroke:#181818;stroke-width:1.0;" x1="1381.7144" x2="1377.93" y1="482.6487" y2="489.697"/><ellipse cx="1384.5526" cy="477.3625" fill="none" rx="4" ry="4" style="stroke:#181818;stroke-width:1.0;"/></g><!--link =GTFSFeed to =LocationFeed--><g id="link_=GTFSFeed_=LocationFeed"><path codeLine="141" d="M1494.07,324.042 C1513.24,362.983 1549.18,436 1572.06,482.475 " fill="none" id="=GTFSFeed-to-=LocationFeed" style="stroke:#181818;stroke-width:1.0;"/><line style="stroke:#181818;stroke-width:1.0;" x1="1572.0903" x2="1581.0044" y1="482.5178" y2="487.0497"/><line style="stroke:#181818;stroke-width:1.0;" x1="1572.0903" x2="1570.2356" y1="482.5178" y2="492.3443"/><line style="stroke:#181818;stroke-width:1.0;" x1="1572.0903" x2="1575.62" y1="482.5178" y2="489.697"/><line style="stroke:#181818;stroke-width:1.0;" x1="1574.7975" x2="1567.6183" y1="478.9581" y2="482.4878"/></g><!--link =Location to =LocationFeed--><g id="link_=Location_=LocationFeed"><path codeLine="142" d="M1259.08,105.244 C1264.76,107.294 1270.43,109.23 1276,111 C1397.71,149.669 1471.75,75.914 1557,171 C1634.53,257.476 1617.6,407.861 1603.14,481.647 " fill="none" id="=Location-to-=LocationFeed" style="stroke:#181818;stroke-width:1.0;"/><line style="stroke:#181818;stroke-width:1.0;" x1="1603.0668" x2="1607.3608" y1="481.9879" y2="491.0191"/><line style="stroke:#181818;stroke-width:1.0;" x1="1603.0668" x2="1595.5992" y1="481.9879" y2="488.6389"/><line style="stroke:#181818;stroke-width:1.0;" x1="1603.0668" x2="1601.48" y1="481.9879" y2="489.829"/><line style="stroke:#181818;stroke-width:1.0;" x1="1607.384" x2="1599.5429" y1="480.8211" y2="479.2343"/></g><!--link =Location to =LocationGTFSDataset--><g id="link_=Location_=LocationGTFSDataset"><path codeLine="143" d="M1054.86,86.651 C994.347,105.062 917.691,133.094 856,171 C819.024,193.72 783.339,227.663 758.103,254.372 " fill="none" id="=Location-to-=LocationGTFSDataset" style="stroke:#181818;stroke-width:1.0;"/><line style="stroke:#181818;stroke-width:1.0;" x1="758.0239" x2="756.9443" y1="254.4556" y2="264.3972"/><line style="stroke:#181818;stroke-width:1.0;" x1="758.0239" x2="748.1777" y1="254.4556" y2="256.2028"/><line style="stroke:#181818;stroke-width:1.0;" x1="758.0239" x2="752.561" y1="254.4556" y2="260.3"/><line style="stroke:#181818;stroke-width:1.0;" x1="762.3118" x2="756.4675" y1="255.726" y2="250.2631"/></g><!--reverse link =LocationGTFSDataset to =GTFSDataset--><g id="link_=LocationGTFSDataset_=GTFSDataset"><path codeLine="144" d="M847.23,296.5 C856.137,296.5 865.044,296.5 873.95,296.5 " fill="none" id="=LocationGTFSDataset-backto-=GTFSDataset" style="stroke:#181818;stroke-width:1.0;"/><line style="stroke:#181818;stroke-width:1.0;" x1="847.051" x2="839.051" y1="296.5" y2="302.5"/><line style="stroke:#181818;stroke-width:1.0;" x1="847.051" x2="839.051" y1="296.5" y2="290.5"/><line style="stroke:#181818;stroke-width:1.0;" x1="847.051" x2="839.051" y1="296.5" y2="296.5"/><line style="stroke:#181818;stroke-width:1.0;" x1="849.051" x2="849.051" y1="300.5" y2="292.5"/></g><!--link =GTFSDataset to =GTFSFeed--><g id="link_=GTFSDataset_=GTFSFeed"><path codeLine="145" d="M1066.17,181.739 C1083.8,165.176 1103.73,150.532 1125.5,141 C1178.63,117.734 1335.95,112.566 1386.5,141 C1431.87,166.519 1457.99,223.612 1470.84,261.059 " fill="none" id="=GTFSDataset-=GTFSFeed" style="stroke:#181818;stroke-width:1.0;"/><line style="stroke:#181818;stroke-width:1.0;" x1="1066.0353" x2="1064.4475" y1="181.8683" y2="191.7414"/><line style="stroke:#181818;stroke-width:1.0;" x1="1066.0353" x2="1056.1125" y1="181.8683" y2="183.1086"/><line style="stroke:#181818;stroke-width:1.0;" x1="1066.0353" x2="1060.28" y1="181.8683" y2="187.425"/><ellipse cx="1070.3517" cy="177.7008" fill="none" rx="4" ry="4" style="stroke:#181818;stroke-width:1.0;"/><line style="stroke:#181818;stroke-width:1.0;" x1="1475.9175" x2="1468.3242" y1="263.6782" y2="266.1965"/><line style="stroke:#181818;stroke-width:1.0;" x1="1474.9732" x2="1467.3799" y1="260.8307" y2="263.349"/><line style="stroke:#181818;stroke-width:1.0;" x1="1470.8618" x2="1473.38" y1="261.1407" y2="268.734"/></g><!--link =GTFSDataset to =ComponentGTFSDataset--><g id="link_=GTFSDataset_=ComponentGTFSDataset"><path codeLine="146" d="M1090.1,296.5 C1099.21,296.5 1108.31,296.5 1117.42,296.5 " fill="none" id="=GTFSDataset-to-=ComponentGTFSDataset" style="stroke:#181818;stroke-width:1.0;"/><line style="stroke:#181818;stroke-width:1.0;" x1="1117.42" x2="1125.42" y1="296.5" y2="290.5"/><line style="stroke:#181818;stroke-width:1.0;" x1="1117.42" x2="1125.42" y1="296.5" y2="302.5"/><line style="stroke:#181818;stroke-width:1.0;" x1="1117.42" x2="1125.42" y1="296.5" y2="296.5"/><ellipse cx="1111.42" cy="296.5" fill="none" rx="4" ry="4" style="stroke:#181818;stroke-width:1.0;"/></g><!--reverse link =ComponentGTFSDataset to =Component--><g id="link_=ComponentGTFSDataset_=Component"><path codeLine="147" d="M1236.17,340.052 C1214.52,386.523 1180.52,459.506 1162.37,498.443 " fill="none" id="=ComponentGTFSDataset-backto-=Component" style="stroke:#181818;stroke-width:1.0;"/><line style="stroke:#181818;stroke-width:1.0;" x1="1236.2936" x2="1234.2306" y1="339.8006" y2="330.0157"/><line style="stroke:#181818;stroke-width:1.0;" x1="1236.2936" x2="1245.1094" y1="339.8006" y2="335.0803"/><line style="stroke:#181818;stroke-width:1.0;" x1="1236.2936" x2="1239.67" y1="339.8006" y2="332.548"/><line style="stroke:#181818;stroke-width:1.0;" x1="1231.8232" x2="1239.0757" y1="339.9255" y2="343.3019"/></g><!--SRC=[xLPBRnen4Bxlhx28r1kgMgcL6X6al4WgjJqakQ-CFR1MlFRAzj8WuBztx6MNVPKaG6_D8QpjRvxVpDY9u42i0mFQBJE84hzcmZ2v_OOqSqkIGZe5OwF8FWkLKKDJmc56S-acMhbVD0Lo3y89ydHTWzm3vM0yubfBRSZPjw-NdoQJ6e99QkqEG7EdK-e4YzeOiee8_XKQhoXxdXkTAnx4HYDGUJeUav_0HPu-IkhWIkQmNy89jqIPCmuOoInWjm2Zm93FNw9D57d5vEA6Elg4sI6LfLKqTpCR_iN6xP2FZhhSrd6KER60IAZj1uS5I9sbw01-PmOOUiiB3TubSZ41uAJcuIeQCU_qUIkyyUZ3Cop7eu_XT4m49-TaGGrBgC5mE3eTUqvnjmm0jpEZ5yYhQM1dQ39MdiNwhjAkkO6oF6TWujp8nW7obdX_CHQXLMbrghK4ghhdGirqLqScOemd3gG3LcJN8IaOA0iTKUleL4BSIe0DN9oJWXFSQENuNbYdpVA0L1UhPiBVnb4IR68UP8pCQyDZ9r881C5_plevgqYxUveyFW2LFcK7DaaVSxMok0s_LQk_im5RiVVgFSxlGgoTvFTe25NJIlgccU8JfhRJSmymmwj6CJZSm7Rcnjr8tgtbbMJyq4Njds0OCxnPd5d6JFDcUzXyoiL2MDzYdTv9SoMOoAZqxhpYv76iILssEVytXNNxWjD1KVdzvd0d3sISuFD1C-6lsSwuqRbXiAyP_1Isu8ukWJrPylBMDMRlr3z4X9h7K_s21tUWSRgQ9PuasleusjEqC_OJQfFcSq3_Lb9J7kCTuw7-nmzINvm62lAxH_ZqSd6U-PsUq_uPtbESnsNoP3NA2nVsE7ojqqmhN9rW_lShFaagMENcgHD1IEdn0oh2Duh3CZocQOiMEvmpHysytzD1k546PBqUIfYveLvjjxOFkq43CjHhNBQV44sC4VF4xO0jm6POc6Wafct40tQpBfnsR98IrtWL1Enk2r4XglLVa5sjcog0CX7LRLj9R95w-3feM9Yktoy1KMuSWAZLVcMiNDV3tOVluRmDw-kr47GGURi0yba_7Fm1]--></g></svg>