<?xml version="1.0" encoding="us-ascii" standalone="no"?><svg xmlns="http://www.w3.org/2000/svg" xmlns:xlink="http://www.w3.org/1999/xlink" contentStyleType="text/css" height="692px" preserveAspectRatio="none" style="width:1916px;height:692px;background:#FFFFFF;" version="1.1" viewBox="0 0 1916 692" width="1916px" zoomAndPan="magnify"><defs/><g><!--class =DataType--><g id="elem_=DataType"><rect codeLine="15" fill="#F1F1F1" height="71.5469" id="=DataType" rx="2.5" ry="2.5" style="stroke:#181818;stroke-width:0.5;" width="106" x="1519" y="23"/><rect fill="#7B68EE" height="30.9531" rx="2.5" ry="2.5" style="stroke:#7B68EE;stroke-width:0.5;" width="106" x="1519" y="23"/><rect fill="#7B68EE" height="2.5" style="stroke:#7B68EE;stroke-width:0.5;" width="106" x="1519" y="51.4531"/><rect codeLine="15" fill="none" height="71.5469" id="=DataType" rx="2.5" ry="2.5" style="stroke:#181818;stroke-width:0.5;" width="106" x="1519" y="23"/><text fill="#FFFFFF" font-family="Heiti TC" font-size="18" font-weight="bold" lengthAdjust="spacing" textLength="100" x="1522" y="44.708">DataType</text><line style="stroke:#181818;stroke-width:0.5;" x1="1520" x2="1624" y1="53.9531" y2="53.9531"/><text fill="#000000" font-family="Heiti TC" font-size="14" lengthAdjust="spacing" textLength="29" x="1525" y="70.9482">gtfs</text><text fill="#000000" font-family="Heiti TC" font-size="14" lengthAdjust="spacing" textLength="49" x="1525" y="87.2451">gtfs_rt</text></g><!--class =Status--><g id="elem_=Status"><rect codeLine="20" fill="#F1F1F1" height="104.1406" id="=Status" rx="2.5" ry="2.5" style="stroke:#181818;stroke-width:0.5;" width="109" x="1660.5" y="7"/><rect fill="#7B68EE" height="30.9531" rx="2.5" ry="2.5" style="stroke:#7B68EE;stroke-width:0.5;" width="109" x="1660.5" y="7"/><rect fill="#7B68EE" height="2.5" style="stroke:#7B68EE;stroke-width:0.5;" width="109" x="1660.5" y="35.4531"/><rect codeLine="20" fill="none" height="104.1406" id="=Status" rx="2.5" ry="2.5" style="stroke:#181818;stroke-width:0.5;" width="109" x="1660.5" y="7"/><text fill="#FFFFFF" font-family="Heiti TC" font-size="18" font-weight="bold" lengthAdjust="spacing" textLength="69" x="1680.5" y="28.708">Status</text><line style="stroke:#181818;stroke-width:0.5;" x1="1661.5" x2="1768.5" y1="37.9531" y2="37.9531"/><text fill="#000000" font-family="Heiti TC" font-size="14" lengthAdjust="spacing" textLength="44" x="1666.5" y="54.9482">active</text><text fill="#000000" font-family="Heiti TC" font-size="14" lengthAdjust="spacing" textLength="57" x="1666.5" y="71.2451">inactive</text><text fill="#000000" font-family="Heiti TC" font-size="14" lengthAdjust="spacing" textLength="97" x="1666.5" y="87.542">development</text><text fill="#000000" font-family="Heiti TC" font-size="14" lengthAdjust="spacing" textLength="84" x="1666.5" y="103.8389">deprecated</text></g><!--class =Feed--><g id="elem_=Feed"><rect codeLine="27" fill="#F1F1F1" height="234.5156" id="=Feed" rx="2.5" ry="2.5" style="stroke:#181818;stroke-width:0.5;" width="264" x="306" y="179"/><rect fill="#DEDEFF" height="30.9531" rx="2.5" ry="2.5" style="stroke:#DEDEFF;stroke-width:0.5;" width="264" x="306" y="179"/><rect fill="#DEDEFF" height="2.5" style="stroke:#DEDEFF;stroke-width:0.5;" width="264" x="306" y="207.4531"/><rect codeLine="27" fill="none" height="234.5156" id="=Feed" rx="2.5" ry="2.5" style="stroke:#181818;stroke-width:0.5;" width="264" x="306" y="179"/><text fill="#000000" font-family="Heiti TC" font-size="18" font-weight="bold" lengthAdjust="spacing" textLength="50" x="413" y="200.708">Feed</text><line style="stroke:#181818;stroke-width:0.5;" x1="307" x2="569" y1="209.9531" y2="209.9531"/><path d="M319.4167,217.4167 C317.8067,217.4167 316.5,218.7233 316.5,220.3333 C316.5,220.52 316.5,220.7067 316.535,220.8817 L313,224.4167 L313,226.75 L316.5,226.75 L316.5,224.4167 L318.8333,224.4167 L318.8333,223.25 L318.8683,223.215 C319.0433,223.25 319.23,223.25 319.4167,223.25 C321.0267,223.25 322.3333,221.9433 322.3333,220.3333 C322.3333,218.7233 321.0267,217.4167 319.4167,217.4167 M320,218.5833 C320.6417,218.5833 321.1667,219.1083 321.1667,219.75 C321.1667,220.3917 320.6417,220.9167 320,220.9167 C319.3583,220.9167 318.8333,220.3917 318.8333,219.75 C318.8333,219.1083 319.3583,218.5833 320,218.5833 " fill="#7B68EE" style="stroke:;stroke-width:0.0;stroke-dasharray:;"/><text fill="#000000" font-family="Heiti TC" font-size="14" lengthAdjust="spacing" textLength="79" x="327.3333" y="226.9482">id : varchar</text><text fill="#000000" font-family="Heiti TC" font-size="14" lengthAdjust="spacing" textLength="156" x="312" y="243.2451">data_type : DataType</text><text fill="#000000" font-family="Heiti TC" font-size="14" lengthAdjust="spacing" textLength="127" x="312" y="259.542">provider : varchar</text><text fill="#000000" font-family="Heiti TC" font-size="14" lengthAdjust="spacing" textLength="146" x="312" y="275.8389">feed_name : varchar</text><text fill="#000000" font-family="Heiti TC" font-size="14" lengthAdjust="spacing" textLength="100" x="312" y="292.1357">note : varchar</text><text fill="#000000" font-family="Heiti TC" font-size="14" lengthAdjust="spacing" textLength="156" x="312" y="308.4326">producer_url : varchar</text><text fill="#000000" font-family="Heiti TC" font-size="14" lengthAdjust="spacing" textLength="218" x="312" y="324.7295">authentication_type : boolean</text><text fill="#000000" font-family="Heiti TC" font-size="14" lengthAdjust="spacing" textLength="232" x="312" y="341.0264">authentication_info_url : varchar</text><text fill="#000000" font-family="Heiti TC" font-size="14" lengthAdjust="spacing" textLength="252" x="312" y="357.3232">api_key_parameter_name : varchar</text><text fill="#000000" font-family="Heiti TC" font-size="14" lengthAdjust="spacing" textLength="141" x="312" y="373.6201">license_url : varchar</text><text fill="#000000" font-family="Heiti TC" font-size="14" lengthAdjust="spacing" textLength="131" x="312" y="389.917">stable_id : varchar</text><text fill="#000000" font-family="Heiti TC" font-size="14" lengthAdjust="spacing" textLength="99" x="312" y="406.2139">status: Status</text></g><!--class =FeedHistory--><g id="elem_=FeedHistory"><rect codeLine="42" fill="#F1F1F1" height="250.8125" id="=FeedHistory" rx="2.5" ry="2.5" style="stroke:#181818;stroke-width:0.5;" width="264" x="7" y="171"/><rect fill="#DEDEFF" height="30.9531" rx="2.5" ry="2.5" style="stroke:#DEDEFF;stroke-width:0.5;" width="264" x="7" y="171"/><rect fill="#DEDEFF" height="2.5" style="stroke:#DEDEFF;stroke-width:0.5;" width="264" x="7" y="199.4531"/><rect codeLine="42" fill="none" height="250.8125" id="=FeedHistory" rx="2.5" ry="2.5" style="stroke:#181818;stroke-width:0.5;" width="264" x="7" y="171"/><text fill="#000000" font-family="Heiti TC" font-size="18" font-weight="bold" lengthAdjust="spacing" textLength="129" x="74.5" y="192.708">FeedHistory</text><line style="stroke:#181818;stroke-width:0.5;" x1="8" x2="270" y1="201.9531" y2="201.9531"/><path d="M20.4167,209.4167 C18.8067,209.4167 17.5,210.7233 17.5,212.3333 C17.5,212.52 17.5,212.7067 17.535,212.8817 L14,216.4167 L14,218.75 L17.5,218.75 L17.5,216.4167 L19.8333,216.4167 L19.8333,215.25 L19.8683,215.215 C20.0433,215.25 20.23,215.25 20.4167,215.25 C22.0267,215.25 23.3333,213.9433 23.3333,212.3333 C23.3333,210.7233 22.0267,209.4167 20.4167,209.4167 M21,210.5833 C21.6417,210.5833 22.1667,211.1083 22.1667,211.75 C22.1667,212.3917 21.6417,212.9167 21,212.9167 C20.3583,212.9167 19.8333,212.3917 19.8333,211.75 C19.8333,211.1083 20.3583,210.5833 21,210.5833 " fill="#7B68EE" style="stroke:;stroke-width:0.0;stroke-dasharray:;"/><path d="M31.75,209.4167 C30.14,209.4167 28.8333,210.7233 28.8333,212.3333 C28.8333,212.52 28.8333,212.7067 28.8683,212.8817 L25.3333,216.4167 L25.3333,218.75 L28.8333,218.75 L28.8333,216.4167 L31.1667,216.4167 L31.1667,215.25 L31.2017,215.215 C31.3767,215.25 31.5633,215.25 31.75,215.25 C33.36,215.25 34.6667,213.9433 34.6667,212.3333 C34.6667,210.7233 33.36,209.4167 31.75,209.4167 M32.3333,210.5833 C32.975,210.5833 33.5,211.1083 33.5,211.75 C33.5,212.3917 32.975,212.9167 32.3333,212.9167 C31.6917,212.9167 31.1667,212.3917 31.1667,211.75 C31.1667,211.1083 31.6917,210.5833 32.3333,210.5833 " fill="#000000" style="stroke:;stroke-width:0.0;stroke-dasharray:;"/><text fill="#000000" font-family="Heiti TC" font-size="14" lengthAdjust="spacing" textLength="79" x="39.6667" y="218.9482">id : varchar</text><path d="M20.4167,225.7135 C18.8067,225.7135 17.5,227.0202 17.5,228.6302 C17.5,228.8169 17.5,229.0035 17.535,229.1785 L14,232.7135 L14,235.0469 L17.5,235.0469 L17.5,232.7135 L19.8333,232.7135 L19.8333,231.5469 L19.8683,231.5119 C20.0433,231.5469 20.23,231.5469 20.4167,231.5469 C22.0267,231.5469 23.3333,230.2402 23.3333,228.6302 C23.3333,227.0202 22.0267,225.7135 20.4167,225.7135 M21,226.8802 C21.6417,226.8802 22.1667,227.4052 22.1667,228.0469 C22.1667,228.6885 21.6417,229.2135 21,229.2135 C20.3583,229.2135 19.8333,228.6885 19.8333,228.0469 C19.8333,227.4052 20.3583,226.8802 21,226.8802 " fill="#7B68EE" style="stroke:;stroke-width:0.0;stroke-dasharray:;"/><text fill="#000000" font-family="Heiti TC" font-size="14" lengthAdjust="spacing" textLength="205" x="28.3333" y="235.2451">historical_record_time: Date</text><text fill="#000000" font-family="Heiti TC" font-size="14" lengthAdjust="spacing" textLength="156" x="13" y="251.542">data_type : DataType</text><text fill="#000000" font-family="Heiti TC" font-size="14" lengthAdjust="spacing" textLength="127" x="13" y="267.8389">provider : varchar</text><text fill="#000000" font-family="Heiti TC" font-size="14" lengthAdjust="spacing" textLength="146" x="13" y="284.1357">feed_name : varchar</text><text fill="#000000" font-family="Heiti TC" font-size="14" lengthAdjust="spacing" textLength="100" x="13" y="300.4326">note : varchar</text><text fill="#000000" font-family="Heiti TC" font-size="14" lengthAdjust="spacing" textLength="156" x="13" y="316.7295">producer_url : varchar</text><text fill="#000000" font-family="Heiti TC" font-size="14" lengthAdjust="spacing" textLength="218" x="13" y="333.0264">authentication_type : boolean</text><text fill="#000000" font-family="Heiti TC" font-size="14" lengthAdjust="spacing" textLength="232" x="13" y="349.3232">authentication_info_url : varchar</text><text fill="#000000" font-family="Heiti TC" font-size="14" lengthAdjust="spacing" textLength="252" x="13" y="365.6201">api_key_parameter_name : varchar</text><text fill="#000000" font-family="Heiti TC" font-size="14" lengthAdjust="spacing" textLength="141" x="13" y="381.917">license_url : varchar</text><text fill="#000000" font-family="Heiti TC" font-size="14" lengthAdjust="spacing" textLength="131" x="13" y="398.2139">stable_id : varchar</text><text fill="#000000" font-family="Heiti TC" font-size="14" lengthAdjust="spacing" textLength="99" x="13" y="414.5107">status: Status</text></g><!--class =GTFSRealtimeFeed--><g id="elem_=GTFSRealtimeFeed"><rect codeLine="59" fill="#F1F1F1" height="55.25" id="=GTFSRealtimeFeed" rx="2.5" ry="2.5" style="stroke:#181818;stroke-width:0.5;" width="203" x="703.5" y="490.5"/><rect fill="#DEDEFF" height="30.9531" rx="2.5" ry="2.5" style="stroke:#DEDEFF;stroke-width:0.5;" width="203" x="703.5" y="490.5"/><rect fill="#DEDEFF" height="2.5" style="stroke:#DEDEFF;stroke-width:0.5;" width="203" x="703.5" y="518.9531"/><rect codeLine="59" fill="none" height="55.25" id="=GTFSRealtimeFeed" rx="2.5" ry="2.5" style="stroke:#181818;stroke-width:0.5;" width="203" x="703.5" y="490.5"/><text fill="#000000" font-family="Heiti TC" font-size="18" font-weight="bold" lengthAdjust="spacing" textLength="197" x="706.5" y="512.208">GTFSRealtimeFeed</text><line style="stroke:#181818;stroke-width:0.5;" x1="704.5" x2="905.5" y1="521.4531" y2="521.4531"/><path d="M716.9167,528.9167 C715.3067,528.9167 714,530.2233 714,531.8333 C714,532.02 714,532.2067 714.035,532.3817 L710.5,535.9167 L710.5,538.25 L714,538.25 L714,535.9167 L716.3333,535.9167 L716.3333,534.75 L716.3683,534.715 C716.5433,534.75 716.73,534.75 716.9167,534.75 C718.5267,534.75 719.8333,533.4433 719.8333,531.8333 C719.8333,530.2233 718.5267,528.9167 716.9167,528.9167 M717.5,530.0833 C718.1417,530.0833 718.6667,530.6083 718.6667,531.25 C718.6667,531.8917 718.1417,532.4167 717.5,532.4167 C716.8583,532.4167 716.3333,531.8917 716.3333,531.25 C716.3333,530.6083 716.8583,530.0833 717.5,530.0833 " fill="#7B68EE" style="stroke:;stroke-width:0.0;stroke-dasharray:;"/><path d="M728.25,528.9167 C726.64,528.9167 725.3333,530.2233 725.3333,531.8333 C725.3333,532.02 725.3333,532.2067 725.3683,532.3817 L721.8333,535.9167 L721.8333,538.25 L725.3333,538.25 L725.3333,535.9167 L727.6667,535.9167 L727.6667,534.75 L727.7017,534.715 C727.8767,534.75 728.0633,534.75 728.25,534.75 C729.86,534.75 731.1667,533.4433 731.1667,531.8333 C731.1667,530.2233 729.86,528.9167 728.25,528.9167 M728.8333,530.0833 C729.475,530.0833 730,530.6083 730,531.25 C730,531.8917 729.475,532.4167 728.8333,532.4167 C728.1917,532.4167 727.6667,531.8917 727.6667,531.25 C727.6667,530.6083 728.1917,530.0833 728.8333,530.0833 " fill="#000000" style="stroke:;stroke-width:0.0;stroke-dasharray:;"/><text fill="#000000" font-family="Heiti TC" font-size="14" lengthAdjust="spacing" textLength="79" x="736.1667" y="538.4482">id : varchar</text></g><!--class =EntityType--><g id="elem_=EntityType"><rect codeLine="63" fill="#F1F1F1" height="55.25" id="=EntityType" rx="2.5" ry="2.5" style="stroke:#181818;stroke-width:0.5;" width="133.3333" x="938.5" y="622.5"/><rect fill="#DEDEFF" height="30.9531" rx="2.5" ry="2.5" style="stroke:#DEDEFF;stroke-width:0.5;" width="133.3333" x="938.5" y="622.5"/><rect fill="#DEDEFF" height="2.5" style="stroke:#DEDEFF;stroke-width:0.5;" width="133.3333" x="938.5" y="650.9531"/><rect codeLine="63" fill="none" height="55.25" id="=EntityType" rx="2.5" ry="2.5" style="stroke:#181818;stroke-width:0.5;" width="133.3333" x="938.5" y="622.5"/><text fill="#000000" font-family="Heiti TC" font-size="18" font-weight="bold" lengthAdjust="spacing" textLength="116" x="947.1667" y="644.208">EntityType</text><line style="stroke:#181818;stroke-width:0.5;" x1="939.5" x2="1070.8333" y1="653.4531" y2="653.4531"/><path d="M951.9167,660.9167 C950.3067,660.9167 949,662.2233 949,663.8333 C949,664.02 949,664.2067 949.035,664.3817 L945.5,667.9167 L945.5,670.25 L949,670.25 L949,667.9167 L951.3333,667.9167 L951.3333,666.75 L951.3683,666.715 C951.5433,666.75 951.73,666.75 951.9167,666.75 C953.5267,666.75 954.8333,665.4433 954.8333,663.8333 C954.8333,662.2233 953.5267,660.9167 951.9167,660.9167 M952.5,662.0833 C953.1417,662.0833 953.6667,662.6083 953.6667,663.25 C953.6667,663.8917 953.1417,664.4167 952.5,664.4167 C951.8583,664.4167 951.3333,663.8917 951.3333,663.25 C951.3333,662.6083 951.8583,662.0833 952.5,662.0833 " fill="#7B68EE" style="stroke:;stroke-width:0.0;stroke-dasharray:;"/><text fill="#000000" font-family="Heiti TC" font-size="14" lengthAdjust="spacing" textLength="106" x="959.8333" y="670.4482">name : varchar</text></g><!--class =EntityTypeFeed--><g id="elem_=EntityTypeFeed"><rect codeLine="67" fill="#F1F1F1" height="71.5469" id="=EntityTypeFeed" rx="2.5" ry="2.5" style="stroke:#181818;stroke-width:0.5;" width="195.6667" x="707" y="614"/><rect fill="#DEDEFF" height="30.9531" rx="2.5" ry="2.5" style="stroke:#DEDEFF;stroke-width:0.5;" width="195.6667" x="707" y="614"/><rect fill="#DEDEFF" height="2.5" style="stroke:#DEDEFF;stroke-width:0.5;" width="195.6667" x="707" y="642.4531"/><rect codeLine="67" fill="none" height="71.5469" id="=EntityTypeFeed" rx="2.5" ry="2.5" style="stroke:#181818;stroke-width:0.5;" width="195.6667" x="707" y="614"/><text fill="#000000" font-family="Heiti TC" font-size="18" font-weight="bold" lengthAdjust="spacing" textLength="166" x="721.8333" y="635.708">EntityTypeFeed</text><line style="stroke:#181818;stroke-width:0.5;" x1="708" x2="901.6667" y1="644.9531" y2="644.9531"/><path d="M720.4167,652.4167 C718.8067,652.4167 717.5,653.7233 717.5,655.3333 C717.5,655.52 717.5,655.7067 717.535,655.8817 L714,659.4167 L714,661.75 L717.5,661.75 L717.5,659.4167 L719.8333,659.4167 L719.8333,658.25 L719.8683,658.215 C720.0433,658.25 720.23,658.25 720.4167,658.25 C722.0267,658.25 723.3333,656.9433 723.3333,655.3333 C723.3333,653.7233 722.0267,652.4167 720.4167,652.4167 M721,653.5833 C721.6417,653.5833 722.1667,654.1083 722.1667,654.75 C722.1667,655.3917 721.6417,655.9167 721,655.9167 C720.3583,655.9167 719.8333,655.3917 719.8333,654.75 C719.8333,654.1083 720.3583,653.5833 721,653.5833 " fill="#7B68EE" style="stroke:;stroke-width:0.0;stroke-dasharray:;"/><path d="M731.75,652.4167 C730.14,652.4167 728.8333,653.7233 728.8333,655.3333 C728.8333,655.52 728.8333,655.7067 728.8683,655.8817 L725.3333,659.4167 L725.3333,661.75 L728.8333,661.75 L728.8333,659.4167 L731.1667,659.4167 L731.1667,658.25 L731.2017,658.215 C731.3767,658.25 731.5633,658.25 731.75,658.25 C733.36,658.25 734.6667,656.9433 734.6667,655.3333 C734.6667,653.7233 733.36,652.4167 731.75,652.4167 M732.3333,653.5833 C732.975,653.5833 733.5,654.1083 733.5,654.75 C733.5,655.3917 732.975,655.9167 732.3333,655.9167 C731.6917,655.9167 731.1667,655.3917 731.1667,654.75 C731.1667,654.1083 731.6917,653.5833 732.3333,653.5833 " fill="#000000" style="stroke:;stroke-width:0.0;stroke-dasharray:;"/><text fill="#000000" font-family="Heiti TC" font-size="14" lengthAdjust="spacing" textLength="157" x="739.6667" y="661.9482">entity_name : varchar</text><path d="M720.4167,668.7135 C718.8067,668.7135 717.5,670.0202 717.5,671.6302 C717.5,671.8169 717.5,672.0035 717.535,672.1785 L714,675.7135 L714,678.0469 L717.5,678.0469 L717.5,675.7135 L719.8333,675.7135 L719.8333,674.5469 L719.8683,674.5119 C720.0433,674.5469 720.23,674.5469 720.4167,674.5469 C722.0267,674.5469 723.3333,673.2402 723.3333,671.6302 C723.3333,670.0202 722.0267,668.7135 720.4167,668.7135 M721,669.8802 C721.6417,669.8802 722.1667,670.4052 722.1667,671.0469 C722.1667,671.6885 721.6417,672.2135 721,672.2135 C720.3583,672.2135 719.8333,671.6885 719.8333,671.0469 C719.8333,670.4052 720.3583,669.8802 721,669.8802 " fill="#7B68EE" style="stroke:;stroke-width:0.0;stroke-dasharray:;"/><path d="M731.75,668.7135 C730.14,668.7135 728.8333,670.0202 728.8333,671.6302 C728.8333,671.8169 728.8333,672.0035 728.8683,672.1785 L725.3333,675.7135 L725.3333,678.0469 L728.8333,678.0469 L728.8333,675.7135 L731.1667,675.7135 L731.1667,674.5469 L731.2017,674.5119 C731.3767,674.5469 731.5633,674.5469 731.75,674.5469 C733.36,674.5469 734.6667,673.2402 734.6667,671.6302 C734.6667,670.0202 733.36,668.7135 731.75,668.7135 M732.3333,669.8802 C732.975,669.8802 733.5,670.4052 733.5,671.0469 C733.5,671.6885 732.975,672.2135 732.3333,672.2135 C731.6917,672.2135 731.1667,671.6885 731.1667,671.0469 C731.1667,670.4052 731.6917,669.8802 732.3333,669.8802 " fill="#000000" style="stroke:;stroke-width:0.0;stroke-dasharray:;"/><text fill="#000000" font-family="Heiti TC" font-size="14" lengthAdjust="spacing" textLength="119" x="739.6667" y="678.2451">feed_id : varchar</text></g><!--class =GTFSFeed--><g id="elem_=GTFSFeed"><rect codeLine="72" fill="#F1F1F1" height="55.25" id="=GTFSFeed" rx="2.5" ry="2.5" style="stroke:#181818;stroke-width:0.5;" width="117.6667" x="1647" y="269"/><rect fill="#DEDEFF" height="30.9531" rx="2.5" ry="2.5" style="stroke:#DEDEFF;stroke-width:0.5;" width="117.6667" x="1647" y="269"/><rect fill="#DEDEFF" height="2.5" style="stroke:#DEDEFF;stroke-width:0.5;" width="117.6667" x="1647" y="297.4531"/><rect codeLine="72" fill="none" height="55.25" id="=GTFSFeed" rx="2.5" ry="2.5" style="stroke:#181818;stroke-width:0.5;" width="117.6667" x="1647" y="269"/><text fill="#000000" font-family="Heiti TC" font-size="18" font-weight="bold" lengthAdjust="spacing" textLength="105" x="1653.3333" y="290.708">GTFSFeed</text><line style="stroke:#181818;stroke-width:0.5;" x1="1648" x2="1763.6667" y1="299.9531" y2="299.9531"/><path d="M1660.4167,307.4167 C1658.8067,307.4167 1657.5,308.7233 1657.5,310.3333 C1657.5,310.52 1657.5,310.7067 1657.535,310.8817 L1654,314.4167 L1654,316.75 L1657.5,316.75 L1657.5,314.4167 L1659.8333,314.4167 L1659.8333,313.25 L1659.8683,313.215 C1660.0433,313.25 1660.23,313.25 1660.4167,313.25 C1662.0267,313.25 1663.3333,311.9433 1663.3333,310.3333 C1663.3333,308.7233 1662.0267,307.4167 1660.4167,307.4167 M1661,308.5833 C1661.6417,308.5833 1662.1667,309.1083 1662.1667,309.75 C1662.1667,310.3917 1661.6417,310.9167 1661,310.9167 C1660.3583,310.9167 1659.8333,310.3917 1659.8333,309.75 C1659.8333,309.1083 1660.3583,308.5833 1661,308.5833 " fill="#7B68EE" style="stroke:;stroke-width:0.0;stroke-dasharray:;"/><path d="M1671.75,307.4167 C1670.14,307.4167 1668.8333,308.7233 1668.8333,310.3333 C1668.8333,310.52 1668.8333,310.7067 1668.8683,310.8817 L1665.3333,314.4167 L1665.3333,316.75 L1668.8333,316.75 L1668.8333,314.4167 L1671.1667,314.4167 L1671.1667,313.25 L1671.2017,313.215 C1671.3767,313.25 1671.5633,313.25 1671.75,313.25 C1673.36,313.25 1674.6667,311.9433 1674.6667,310.3333 C1674.6667,308.7233 1673.36,307.4167 1671.75,307.4167 M1672.3333,308.5833 C1672.975,308.5833 1673.5,309.1083 1673.5,309.75 C1673.5,310.3917 1672.975,310.9167 1672.3333,310.9167 C1671.6917,310.9167 1671.1667,310.3917 1671.1667,309.75 C1671.1667,309.1083 1671.6917,308.5833 1672.3333,308.5833 " fill="#000000" style="stroke:;stroke-width:0.0;stroke-dasharray:;"/><text fill="#000000" font-family="Heiti TC" font-size="14" lengthAdjust="spacing" textLength="79" x="1679.6667" y="316.9482">id : varchar</text></g><!--class =FeedReference--><g id="elem_=FeedReference"><rect codeLine="76" fill="#F1F1F1" height="71.5469" id="=FeedReference" rx="2.5" ry="2.5" style="stroke:#181818;stroke-width:0.5;" width="213.6667" x="1477" y="482"/><rect fill="#DEDEFF" height="30.9531" rx="2.5" ry="2.5" style="stroke:#DEDEFF;stroke-width:0.5;" width="213.6667" x="1477" y="482"/><rect fill="#DEDEFF" height="2.5" style="stroke:#DEDEFF;stroke-width:0.5;" width="213.6667" x="1477" y="510.4531"/><rect codeLine="76" fill="none" height="71.5469" id="=FeedReference" rx="2.5" ry="2.5" style="stroke:#181818;stroke-width:0.5;" width="213.6667" x="1477" y="482"/><text fill="#000000" font-family="Heiti TC" font-size="18" font-weight="bold" lengthAdjust="spacing" textLength="154" x="1506.8333" y="503.708">FeedReference</text><line style="stroke:#181818;stroke-width:0.5;" x1="1478" x2="1689.6667" y1="512.9531" y2="512.9531"/><path d="M1490.4167,520.4167 C1488.8067,520.4167 1487.5,521.7233 1487.5,523.3333 C1487.5,523.52 1487.5,523.7067 1487.535,523.8817 L1484,527.4167 L1484,529.75 L1487.5,529.75 L1487.5,527.4167 L1489.8333,527.4167 L1489.8333,526.25 L1489.8683,526.215 C1490.0433,526.25 1490.23,526.25 1490.4167,526.25 C1492.0267,526.25 1493.3333,524.9433 1493.3333,523.3333 C1493.3333,521.7233 1492.0267,520.4167 1490.4167,520.4167 M1491,521.5833 C1491.6417,521.5833 1492.1667,522.1083 1492.1667,522.75 C1492.1667,523.3917 1491.6417,523.9167 1491,523.9167 C1490.3583,523.9167 1489.8333,523.3917 1489.8333,522.75 C1489.8333,522.1083 1490.3583,521.5833 1491,521.5833 " fill="#7B68EE" style="stroke:;stroke-width:0.0;stroke-dasharray:;"/><path d="M1501.75,520.4167 C1500.14,520.4167 1498.8333,521.7233 1498.8333,523.3333 C1498.8333,523.52 1498.8333,523.7067 1498.8683,523.8817 L1495.3333,527.4167 L1495.3333,529.75 L1498.8333,529.75 L1498.8333,527.4167 L1501.1667,527.4167 L1501.1667,526.25 L1501.2017,526.215 C1501.3767,526.25 1501.5633,526.25 1501.75,526.25 C1503.36,526.25 1504.6667,524.9433 1504.6667,523.3333 C1504.6667,521.7233 1503.36,520.4167 1501.75,520.4167 M1502.3333,521.5833 C1502.975,521.5833 1503.5,522.1083 1503.5,522.75 C1503.5,523.3917 1502.975,523.9167 1502.3333,523.9167 C1501.6917,523.9167 1501.1667,523.3917 1501.1667,522.75 C1501.1667,522.1083 1501.6917,521.5833 1502.3333,521.5833 " fill="#000000" style="stroke:;stroke-width:0.0;stroke-dasharray:;"/><text fill="#000000" font-family="Heiti TC" font-size="14" lengthAdjust="spacing" textLength="175" x="1509.6667" y="529.9482">gtfs_rt_feed_id : varchar</text><path d="M1490.4167,536.7135 C1488.8067,536.7135 1487.5,538.0202 1487.5,539.6302 C1487.5,539.8169 1487.5,540.0035 1487.535,540.1785 L1484,543.7135 L1484,546.0469 L1487.5,546.0469 L1487.5,543.7135 L1489.8333,543.7135 L1489.8333,542.5469 L1489.8683,542.5119 C1490.0433,542.5469 1490.23,542.5469 1490.4167,542.5469 C1492.0267,542.5469 1493.3333,541.2402 1493.3333,539.6302 C1493.3333,538.0202 1492.0267,536.7135 1490.4167,536.7135 M1491,537.8802 C1491.6417,537.8802 1492.1667,538.4052 1492.1667,539.0469 C1492.1667,539.6885 1491.6417,540.2135 1491,540.2135 C1490.3583,540.2135 1489.8333,539.6885 1489.8333,539.0469 C1489.8333,538.4052 1490.3583,537.8802 1491,537.8802 " fill="#7B68EE" style="stroke:;stroke-width:0.0;stroke-dasharray:;"/><path d="M1501.75,536.7135 C1500.14,536.7135 1498.8333,538.0202 1498.8333,539.6302 C1498.8333,539.8169 1498.8333,540.0035 1498.8683,540.1785 L1495.3333,543.7135 L1495.3333,546.0469 L1498.8333,546.0469 L1498.8333,543.7135 L1501.1667,543.7135 L1501.1667,542.5469 L1501.2017,542.5119 C1501.3767,542.5469 1501.5633,542.5469 1501.75,542.5469 C1503.36,542.5469 1504.6667,541.2402 1504.6667,539.6302 C1504.6667,538.0202 1503.36,536.7135 1501.75,536.7135 M1502.3333,537.8802 C1502.975,537.8802 1503.5,538.4052 1503.5,539.0469 C1503.5,539.6885 1502.975,540.2135 1502.3333,540.2135 C1501.6917,540.2135 1501.1667,539.6885 1501.1667,539.0469 C1501.1667,538.4052 1501.6917,537.8802 1502.3333,537.8802 " fill="#000000" style="stroke:;stroke-width:0.0;stroke-dasharray:;"/><text fill="#000000" font-family="Heiti TC" font-size="14" lengthAdjust="spacing" textLength="155" x="1509.6667" y="546.2451">gtfs_feed_id : varchar</text></g><!--class =Location--><g id="elem_=Location"><rect codeLine="81" fill="#F1F1F1" height="104.1406" id="=Location" rx="2.5" ry="2.5" style="stroke:#181818;stroke-width:0.5;" width="204" x="1280" y="7"/><rect fill="#DEDEFF" height="30.9531" rx="2.5" ry="2.5" style="stroke:#DEDEFF;stroke-width:0.5;" width="204" x="1280" y="7"/><rect fill="#DEDEFF" height="2.5" style="stroke:#DEDEFF;stroke-width:0.5;" width="204" x="1280" y="35.4531"/><rect codeLine="81" fill="none" height="104.1406" id="=Location" rx="2.5" ry="2.5" style="stroke:#181818;stroke-width:0.5;" width="204" x="1280" y="7"/><text fill="#000000" font-family="Heiti TC" font-size="18" font-weight="bold" lengthAdjust="spacing" textLength="91" x="1336.5" y="28.708">Location</text><line style="stroke:#181818;stroke-width:0.5;" x1="1281" x2="1483" y1="37.9531" y2="37.9531"/><path d="M1293.4167,45.4167 C1291.8067,45.4167 1290.5,46.7233 1290.5,48.3333 C1290.5,48.52 1290.5,48.7067 1290.535,48.8817 L1287,52.4167 L1287,54.75 L1290.5,54.75 L1290.5,52.4167 L1292.8333,52.4167 L1292.8333,51.25 L1292.8683,51.215 C1293.0433,51.25 1293.23,51.25 1293.4167,51.25 C1295.0267,51.25 1296.3333,49.9433 1296.3333,48.3333 C1296.3333,46.7233 1295.0267,45.4167 1293.4167,45.4167 M1294,46.5833 C1294.6417,46.5833 1295.1667,47.1083 1295.1667,47.75 C1295.1667,48.3917 1294.6417,48.9167 1294,48.9167 C1293.3583,48.9167 1292.8333,48.3917 1292.8333,47.75 C1292.8333,47.1083 1293.3583,46.5833 1294,46.5833 " fill="#7B68EE" style="stroke:;stroke-width:0.0;stroke-dasharray:;"/><text fill="#000000" font-family="Heiti TC" font-size="14" lengthAdjust="spacing" textLength="79" x="1301.3333" y="54.9482">id : varchar</text><text fill="#000000" font-family="Heiti TC" font-size="14" lengthAdjust="spacing" textLength="163" x="1286" y="71.2451">country_code : varchar</text><text fill="#000000" font-family="Heiti TC" font-size="14" lengthAdjust="spacing" textLength="192" x="1286" y="87.542">subdivision_name : varchar</text><text fill="#000000" font-family="Heiti TC" font-size="14" lengthAdjust="spacing" textLength="154" x="1286" y="103.8389">municipality : varchar</text></g><!--class =LocationFeed--><g id="elem_=LocationFeed"><rect codeLine="88" fill="#F1F1F1" height="71.5469" id="=LocationFeed" rx="2.5" ry="2.5" style="stroke:#181818;stroke-width:0.5;" width="182.6667" x="1726.5" y="482"/><rect fill="#DEDEFF" height="30.9531" rx="2.5" ry="2.5" style="stroke:#DEDEFF;stroke-width:0.5;" width="182.6667" x="1726.5" y="482"/><rect fill="#DEDEFF" height="2.5" style="stroke:#DEDEFF;stroke-width:0.5;" width="182.6667" x="1726.5" y="510.4531"/><rect codeLine="88" fill="none" height="71.5469" id="=LocationFeed" rx="2.5" ry="2.5" style="stroke:#181818;stroke-width:0.5;" width="182.6667" x="1726.5" y="482"/><text fill="#000000" font-family="Heiti TC" font-size="18" font-weight="bold" lengthAdjust="spacing" textLength="141" x="1747.3333" y="503.708">LocationFeed</text><line style="stroke:#181818;stroke-width:0.5;" x1="1727.5" x2="1908.1667" y1="512.9531" y2="512.9531"/><path d="M1739.9167,520.4167 C1738.3067,520.4167 1737,521.7233 1737,523.3333 C1737,523.52 1737,523.7067 1737.035,523.8817 L1733.5,527.4167 L1733.5,529.75 L1737,529.75 L1737,527.4167 L1739.3333,527.4167 L1739.3333,526.25 L1739.3683,526.215 C1739.5433,526.25 1739.73,526.25 1739.9167,526.25 C1741.5267,526.25 1742.8333,524.9433 1742.8333,523.3333 C1742.8333,521.7233 1741.5267,520.4167 1739.9167,520.4167 M1740.5,521.5833 C1741.1417,521.5833 1741.6667,522.1083 1741.6667,522.75 C1741.6667,523.3917 1741.1417,523.9167 1740.5,523.9167 C1739.8583,523.9167 1739.3333,523.3917 1739.3333,522.75 C1739.3333,522.1083 1739.8583,521.5833 1740.5,521.5833 " fill="#7B68EE" style="stroke:;stroke-width:0.0;stroke-dasharray:;"/><path d="M1751.25,520.4167 C1749.64,520.4167 1748.3333,521.7233 1748.3333,523.3333 C1748.3333,523.52 1748.3333,523.7067 1748.3683,523.8817 L1744.8333,527.4167 L1744.8333,529.75 L1748.3333,529.75 L1748.3333,527.4167 L1750.6667,527.4167 L1750.6667,526.25 L1750.7017,526.215 C1750.8767,526.25 1751.0633,526.25 1751.25,526.25 C1752.86,526.25 1754.1667,524.9433 1754.1667,523.3333 C1754.1667,521.7233 1752.86,520.4167 1751.25,520.4167 M1751.8333,521.5833 C1752.475,521.5833 1753,522.1083 1753,522.75 C1753,523.3917 1752.475,523.9167 1751.8333,523.9167 C1751.1917,523.9167 1750.6667,523.3917 1750.6667,522.75 C1750.6667,522.1083 1751.1917,521.5833 1751.8333,521.5833 " fill="#000000" style="stroke:;stroke-width:0.0;stroke-dasharray:;"/><text fill="#000000" font-family="Heiti TC" font-size="14" lengthAdjust="spacing" textLength="144" x="1759.1667" y="529.9482">location_id : varchar</text><path d="M1739.9167,536.7135 C1738.3067,536.7135 1737,538.0202 1737,539.6302 C1737,539.8169 1737,540.0035 1737.035,540.1785 L1733.5,543.7135 L1733.5,546.0469 L1737,546.0469 L1737,543.7135 L1739.3333,543.7135 L1739.3333,542.5469 L1739.3683,542.5119 C1739.5433,542.5469 1739.73,542.5469 1739.9167,542.5469 C1741.5267,542.5469 1742.8333,541.2402 1742.8333,539.6302 C1742.8333,538.0202 1741.5267,536.7135 1739.9167,536.7135 M1740.5,537.8802 C1741.1417,537.8802 1741.6667,538.4052 1741.6667,539.0469 C1741.6667,539.6885 1741.1417,540.2135 1740.5,540.2135 C1739.8583,540.2135 1739.3333,539.6885 1739.3333,539.0469 C1739.3333,538.4052 1739.8583,537.8802 1740.5,537.8802 " fill="#7B68EE" style="stroke:;stroke-width:0.0;stroke-dasharray:;"/><path d="M1751.25,536.7135 C1749.64,536.7135 1748.3333,538.0202 1748.3333,539.6302 C1748.3333,539.8169 1748.3333,540.0035 1748.3683,540.1785 L1744.8333,543.7135 L1744.8333,546.0469 L1748.3333,546.0469 L1748.3333,543.7135 L1750.6667,543.7135 L1750.6667,542.5469 L1750.7017,542.5119 C1750.8767,542.5469 1751.0633,542.5469 1751.25,542.5469 C1752.86,542.5469 1754.1667,541.2402 1754.1667,539.6302 C1754.1667,538.0202 1752.86,536.7135 1751.25,536.7135 M1751.8333,537.8802 C1752.475,537.8802 1753,538.4052 1753,539.0469 C1753,539.6885 1752.475,540.2135 1751.8333,540.2135 C1751.1917,540.2135 1750.6667,539.6885 1750.6667,539.0469 C1750.6667,538.4052 1751.1917,537.8802 1751.8333,537.8802 " fill="#000000" style="stroke:;stroke-width:0.0;stroke-dasharray:;"/><text fill="#000000" font-family="Heiti TC" font-size="14" lengthAdjust="spacing" textLength="119" x="1759.1667" y="546.2451">feed_id : varchar</text></g><!--class =ExternalID--><g id="elem_=ExternalID"><rect codeLine="93" fill="#F1F1F1" height="87.8438" id="=ExternalID" rx="2.5" ry="2.5" style="stroke:#181818;stroke-width:0.5;" width="189.3333" x="605.5" y="252.5"/><rect fill="#DEDEFF" height="30.9531" rx="2.5" ry="2.5" style="stroke:#DEDEFF;stroke-width:0.5;" width="189.3333" x="605.5" y="252.5"/><rect fill="#DEDEFF" height="2.5" style="stroke:#DEDEFF;stroke-width:0.5;" width="189.3333" x="605.5" y="280.9531"/><rect codeLine="93" fill="none" height="87.8438" id="=ExternalID" rx="2.5" ry="2.5" style="stroke:#181818;stroke-width:0.5;" width="189.3333" x="605.5" y="252.5"/><text fill="#000000" font-family="Heiti TC" font-size="18" font-weight="bold" lengthAdjust="spacing" textLength="111" x="644.6667" y="274.208">ExternalID</text><line style="stroke:#181818;stroke-width:0.5;" x1="606.5" x2="793.8333" y1="283.4531" y2="283.4531"/><path d="M618.9167,290.9167 C617.3067,290.9167 616,292.2233 616,293.8333 C616,294.02 616,294.2067 616.035,294.3817 L612.5,297.9167 L612.5,300.25 L616,300.25 L616,297.9167 L618.3333,297.9167 L618.3333,296.75 L618.3683,296.715 C618.5433,296.75 618.73,296.75 618.9167,296.75 C620.5267,296.75 621.8333,295.4433 621.8333,293.8333 C621.8333,292.2233 620.5267,290.9167 618.9167,290.9167 M619.5,292.0833 C620.1417,292.0833 620.6667,292.6083 620.6667,293.25 C620.6667,293.8917 620.1417,294.4167 619.5,294.4167 C618.8583,294.4167 618.3333,293.8917 618.3333,293.25 C618.3333,292.6083 618.8583,292.0833 619.5,292.0833 " fill="#7B68EE" style="stroke:;stroke-width:0.0;stroke-dasharray:;"/><path d="M630.25,290.9167 C628.64,290.9167 627.3333,292.2233 627.3333,293.8333 C627.3333,294.02 627.3333,294.2067 627.3683,294.3817 L623.8333,297.9167 L623.8333,300.25 L627.3333,300.25 L627.3333,297.9167 L629.6667,297.9167 L629.6667,296.75 L629.7017,296.715 C629.8767,296.75 630.0633,296.75 630.25,296.75 C631.86,296.75 633.1667,295.4433 633.1667,293.8333 C633.1667,292.2233 631.86,290.9167 630.25,290.9167 M630.8333,292.0833 C631.475,292.0833 632,292.6083 632,293.25 C632,293.8917 631.475,294.4167 630.8333,294.4167 C630.1917,294.4167 629.6667,293.8917 629.6667,293.25 C629.6667,292.6083 630.1917,292.0833 630.8333,292.0833 " fill="#000000" style="stroke:;stroke-width:0.0;stroke-dasharray:;"/><text fill="#000000" font-family="Heiti TC" font-size="14" lengthAdjust="spacing" textLength="119" x="638.1667" y="300.4482">feed_id : varchar</text><path d="M618.9167,307.2135 C617.3067,307.2135 616,308.5202 616,310.1302 C616,310.3169 616,310.5035 616.035,310.6785 L612.5,314.2135 L612.5,316.5469 L616,316.5469 L616,314.2135 L618.3333,314.2135 L618.3333,313.0469 L618.3683,313.0119 C618.5433,313.0469 618.73,313.0469 618.9167,313.0469 C620.5267,313.0469 621.8333,311.7402 621.8333,310.1302 C621.8333,308.5202 620.5267,307.2135 618.9167,307.2135 M619.5,308.3802 C620.1417,308.3802 620.6667,308.9052 620.6667,309.5469 C620.6667,310.1885 620.1417,310.7135 619.5,310.7135 C618.8583,310.7135 618.3333,310.1885 618.3333,309.5469 C618.3333,308.9052 618.8583,308.3802 619.5,308.3802 " fill="#7B68EE" style="stroke:;stroke-width:0.0;stroke-dasharray:;"/><text fill="#000000" font-family="Heiti TC" font-size="14" lengthAdjust="spacing" textLength="162" x="626.8333" y="316.7451">associated_id : varchar</text><text fill="#000000" font-family="Heiti TC" font-size="14" lengthAdjust="spacing" textLength="113" x="611.5" y="333.042">source : varchar</text></g><!--class =GTFSDataset--><g id="elem_=GTFSDataset"><rect codeLine="99" fill="#F1F1F1" height="218.2188" id="=GTFSDataset" rx="2.5" ry="2.5" style="stroke:#181818;stroke-width:0.5;" width="216" x="1099" y="187.5"/><rect fill="#DEDEFF" height="30.9531" rx="2.5" ry="2.5" style="stroke:#DEDEFF;stroke-width:0.5;" width="216" x="1099" y="187.5"/><rect fill="#DEDEFF" height="2.5" style="stroke:#DEDEFF;stroke-width:0.5;" width="216" x="1099" y="215.9531"/><rect codeLine="99" fill="none" height="218.2188" id="=GTFSDataset" rx="2.5" ry="2.5" style="stroke:#181818;stroke-width:0.5;" width="216" x="1099" y="187.5"/><text fill="#000000" font-family="Heiti TC" font-size="18" font-weight="bold" lengthAdjust="spacing" textLength="137" x="1138.5" y="209.208">GTFSDataset</text><line style="stroke:#181818;stroke-width:0.5;" x1="1100" x2="1314" y1="218.4531" y2="218.4531"/><path d="M1112.4167,225.9167 C1110.8067,225.9167 1109.5,227.2233 1109.5,228.8333 C1109.5,229.02 1109.5,229.2067 1109.535,229.3817 L1106,232.9167 L1106,235.25 L1109.5,235.25 L1109.5,232.9167 L1111.8333,232.9167 L1111.8333,231.75 L1111.8683,231.715 C1112.0433,231.75 1112.23,231.75 1112.4167,231.75 C1114.0267,231.75 1115.3333,230.4433 1115.3333,228.8333 C1115.3333,227.2233 1114.0267,225.9167 1112.4167,225.9167 M1113,227.0833 C1113.6417,227.0833 1114.1667,227.6083 1114.1667,228.25 C1114.1667,228.8917 1113.6417,229.4167 1113,229.4167 C1112.3583,229.4167 1111.8333,228.8917 1111.8333,228.25 C1111.8333,227.6083 1112.3583,227.0833 1113,227.0833 " fill="#7B68EE" style="stroke:;stroke-width:0.0;stroke-dasharray:;"/><text fill="#000000" font-family="Heiti TC" font-size="14" lengthAdjust="spacing" textLength="79" x="1120.3333" y="235.4482">id : varchar</text><path d="M1112.4167,242.2135 C1110.8067,242.2135 1109.5,243.5202 1109.5,245.1302 C1109.5,245.3169 1109.5,245.5035 1109.535,245.6785 L1106,249.2135 L1106,251.5469 L1109.5,251.5469 L1109.5,249.2135 L1111.8333,249.2135 L1111.8333,248.0469 L1111.8683,248.0119 C1112.0433,248.0469 1112.23,248.0469 1112.4167,248.0469 C1114.0267,248.0469 1115.3333,246.7402 1115.3333,245.1302 C1115.3333,243.5202 1114.0267,242.2135 1112.4167,242.2135 M1113,243.3802 C1113.6417,243.3802 1114.1667,243.9052 1114.1667,244.5469 C1114.1667,245.1885 1113.6417,245.7135 1113,245.7135 C1112.3583,245.7135 1111.8333,245.1885 1111.8333,244.5469 C1111.8333,243.9052 1112.3583,243.3802 1113,243.3802 " fill="#000000" style="stroke:;stroke-width:0.0;stroke-dasharray:;"/><text fill="#000000" font-family="Heiti TC" font-size="14" lengthAdjust="spacing" textLength="119" x="1120.3333" y="251.7451">feed_id : varchar</text><text fill="#000000" font-family="Heiti TC" font-size="14" lengthAdjust="spacing" textLength="113" x="1105" y="268.042">latest : boolean</text><text fill="#000000" font-family="Heiti TC" font-size="14" lengthAdjust="spacing" textLength="187" x="1105" y="284.3389">bounding_box : Geometry</text><text fill="#000000" font-family="Heiti TC" font-size="14" lengthAdjust="spacing" textLength="141" x="1105" y="300.6357">hosted_url : varchar</text><text fill="#000000" font-family="Heiti TC" font-size="14" lengthAdjust="spacing" textLength="100" x="1105" y="316.9326">note : varchar</text><text fill="#000000" font-family="Heiti TC" font-size="14" lengthAdjust="spacing" textLength="99" x="1105" y="333.2295">hash : varchar</text><text fill="#000000" font-family="Heiti TC" font-size="14" lengthAdjust="spacing" textLength="188" x="1105" y="349.5264">download_date : datetime</text><text fill="#000000" font-family="Heiti TC" font-size="14" lengthAdjust="spacing" textLength="180" x="1105" y="365.8232">creation_date : datetime</text><text fill="#000000" font-family="Heiti TC" font-size="14" lengthAdjust="spacing" textLength="204" x="1105" y="382.1201">last_update_date : datetime</text><text fill="#000000" font-family="Heiti TC" font-size="14" lengthAdjust="spacing" textLength="131" x="1105" y="398.417">stable_id : varchar</text></g><!--class =LocationGTFSDataset--><g id="elem_=LocationGTFSDataset"><rect codeLine="113" fill="#F1F1F1" height="71.5469" id="=LocationGTFSDataset" rx="2.5" ry="2.5" style="stroke:#181818;stroke-width:0.5;" width="234" x="830" y="260.5"/><rect fill="#DEDEFF" height="30.9531" rx="2.5" ry="2.5" style="stroke:#DEDEFF;stroke-width:0.5;" width="234" x="830" y="260.5"/><rect fill="#DEDEFF" height="2.5" style="stroke:#DEDEFF;stroke-width:0.5;" width="234" x="830" y="288.9531"/><rect codeLine="113" fill="none" height="71.5469" id="=LocationGTFSDataset" rx="2.5" ry="2.5" style="stroke:#181818;stroke-width:0.5;" width="234" x="830" y="260.5"/><text fill="#000000" font-family="Heiti TC" font-size="18" font-weight="bold" lengthAdjust="spacing" textLength="228" x="833" y="282.208">LocationGTFSDataset</text><line style="stroke:#181818;stroke-width:0.5;" x1="831" x2="1063" y1="291.4531" y2="291.4531"/><path d="M843.4167,298.9167 C841.8067,298.9167 840.5,300.2233 840.5,301.8333 C840.5,302.02 840.5,302.2067 840.535,302.3817 L837,305.9167 L837,308.25 L840.5,308.25 L840.5,305.9167 L842.8333,305.9167 L842.8333,304.75 L842.8683,304.715 C843.0433,304.75 843.23,304.75 843.4167,304.75 C845.0267,304.75 846.3333,303.4433 846.3333,301.8333 C846.3333,300.2233 845.0267,298.9167 843.4167,298.9167 M844,300.0833 C844.6417,300.0833 845.1667,300.6083 845.1667,301.25 C845.1667,301.8917 844.6417,302.4167 844,302.4167 C843.3583,302.4167 842.8333,301.8917 842.8333,301.25 C842.8333,300.6083 843.3583,300.0833 844,300.0833 " fill="#7B68EE" style="stroke:;stroke-width:0.0;stroke-dasharray:;"/><path d="M854.75,298.9167 C853.14,298.9167 851.8333,300.2233 851.8333,301.8333 C851.8333,302.02 851.8333,302.2067 851.8683,302.3817 L848.3333,305.9167 L848.3333,308.25 L851.8333,308.25 L851.8333,305.9167 L854.1667,305.9167 L854.1667,304.75 L854.2017,304.715 C854.3767,304.75 854.5633,304.75 854.75,304.75 C856.36,304.75 857.6667,303.4433 857.6667,301.8333 C857.6667,300.2233 856.36,298.9167 854.75,298.9167 M855.3333,300.0833 C855.975,300.0833 856.5,300.6083 856.5,301.25 C856.5,301.8917 855.975,302.4167 855.3333,302.4167 C854.6917,302.4167 854.1667,301.8917 854.1667,301.25 C854.1667,300.6083 854.6917,300.0833 855.3333,300.0833 " fill="#000000" style="stroke:;stroke-width:0.0;stroke-dasharray:;"/><text fill="#000000" font-family="Heiti TC" font-size="14" lengthAdjust="spacing" textLength="144" x="862.6667" y="308.4482">location_id : varchar</text><path d="M843.4167,315.2135 C841.8067,315.2135 840.5,316.5202 840.5,318.1302 C840.5,318.3169 840.5,318.5035 840.535,318.6785 L837,322.2135 L837,324.5469 L840.5,324.5469 L840.5,322.2135 L842.8333,322.2135 L842.8333,321.0469 L842.8683,321.0119 C843.0433,321.0469 843.23,321.0469 843.4167,321.0469 C845.0267,321.0469 846.3333,319.7402 846.3333,318.1302 C846.3333,316.5202 845.0267,315.2135 843.4167,315.2135 M844,316.3802 C844.6417,316.3802 845.1667,316.9052 845.1667,317.5469 C845.1667,318.1885 844.6417,318.7135 844,318.7135 C843.3583,318.7135 842.8333,318.1885 842.8333,317.5469 C842.8333,316.9052 843.3583,316.3802 844,316.3802 " fill="#7B68EE" style="stroke:;stroke-width:0.0;stroke-dasharray:;"/><path d="M854.75,315.2135 C853.14,315.2135 851.8333,316.5202 851.8333,318.1302 C851.8333,318.3169 851.8333,318.5035 851.8683,318.6785 L848.3333,322.2135 L848.3333,324.5469 L851.8333,324.5469 L851.8333,322.2135 L854.1667,322.2135 L854.1667,321.0469 L854.2017,321.0119 C854.3767,321.0469 854.5633,321.0469 854.75,321.0469 C856.36,321.0469 857.6667,319.7402 857.6667,318.1302 C857.6667,316.5202 856.36,315.2135 854.75,315.2135 M855.3333,316.3802 C855.975,316.3802 856.5,316.9052 856.5,317.5469 C856.5,318.1885 855.975,318.7135 855.3333,318.7135 C854.6917,318.7135 854.1667,318.1885 854.1667,317.5469 C854.1667,316.9052 854.6917,316.3802 855.3333,316.3802 " fill="#000000" style="stroke:;stroke-width:0.0;stroke-dasharray:;"/><text fill="#000000" font-family="Heiti TC" font-size="14" lengthAdjust="spacing" textLength="141" x="862.6667" y="324.7451">dataset_id : varchar</text></g><!--class =Component--><g id="elem_=Component"><rect codeLine="118" fill="#F1F1F1" height="55.25" id="=Component" rx="2.5" ry="2.5" style="stroke:#181818;stroke-width:0.5;" width="133.3333" x="1308.5" y="490.5"/><rect fill="#DEDEFF" height="30.9531" rx="2.5" ry="2.5" style="stroke:#DEDEFF;stroke-width:0.5;" width="133.3333" x="1308.5" y="490.5"/><rect fill="#DEDEFF" height="2.5" style="stroke:#DEDEFF;stroke-width:0.5;" width="133.3333" x="1308.5" y="518.9531"/><rect codeLine="118" fill="none" height="55.25" id="=Component" rx="2.5" ry="2.5" style="stroke:#181818;stroke-width:0.5;" width="133.3333" x="1308.5" y="490.5"/><text fill="#000000" font-family="Heiti TC" font-size="18" font-weight="bold" lengthAdjust="spacing" textLength="118" x="1316.1667" y="512.208">Component</text><line style="stroke:#181818;stroke-width:0.5;" x1="1309.5" x2="1440.8333" y1="521.4531" y2="521.4531"/><path d="M1321.9167,528.9167 C1320.3067,528.9167 1319,530.2233 1319,531.8333 C1319,532.02 1319,532.2067 1319.035,532.3817 L1315.5,535.9167 L1315.5,538.25 L1319,538.25 L1319,535.9167 L1321.3333,535.9167 L1321.3333,534.75 L1321.3683,534.715 C1321.5433,534.75 1321.73,534.75 1321.9167,534.75 C1323.5267,534.75 1324.8333,533.4433 1324.8333,531.8333 C1324.8333,530.2233 1323.5267,528.9167 1321.9167,528.9167 M1322.5,530.0833 C1323.1417,530.0833 1323.6667,530.6083 1323.6667,531.25 C1323.6667,531.8917 1323.1417,532.4167 1322.5,532.4167 C1321.8583,532.4167 1321.3333,531.8917 1321.3333,531.25 C1321.3333,530.6083 1321.8583,530.0833 1322.5,530.0833 " fill="#7B68EE" style="stroke:;stroke-width:0.0;stroke-dasharray:;"/><text fill="#000000" font-family="Heiti TC" font-size="14" lengthAdjust="spacing" textLength="106" x="1329.8333" y="538.4482">name : varchar</text></g><!--class =ComponentGTFSDataset--><g id="elem_=ComponentGTFSDataset"><rect codeLine="122" fill="#F1F1F1" height="71.5469" id="=ComponentGTFSDataset" rx="2.5" ry="2.5" style="stroke:#181818;stroke-width:0.5;" width="261" x="1350.5" y="260.5"/><rect fill="#DEDEFF" height="30.9531" rx="2.5" ry="2.5" style="stroke:#DEDEFF;stroke-width:0.5;" width="261" x="1350.5" y="260.5"/><rect fill="#DEDEFF" height="2.5" style="stroke:#DEDEFF;stroke-width:0.5;" width="261" x="1350.5" y="288.9531"/><rect codeLine="122" fill="none" height="71.5469" id="=ComponentGTFSDataset" rx="2.5" ry="2.5" style="stroke:#181818;stroke-width:0.5;" width="261" x="1350.5" y="260.5"/><text fill="#000000" font-family="Heiti TC" font-size="18" font-weight="bold" lengthAdjust="spacing" textLength="255" x="1353.5" y="282.208">ComponentGTFSDataset</text><line style="stroke:#181818;stroke-width:0.5;" x1="1351.5" x2="1610.5" y1="291.4531" y2="291.4531"/><path d="M1363.9167,298.9167 C1362.3067,298.9167 1361,300.2233 1361,301.8333 C1361,302.02 1361,302.2067 1361.035,302.3817 L1357.5,305.9167 L1357.5,308.25 L1361,308.25 L1361,305.9167 L1363.3333,305.9167 L1363.3333,304.75 L1363.3683,304.715 C1363.5433,304.75 1363.73,304.75 1363.9167,304.75 C1365.5267,304.75 1366.8333,303.4433 1366.8333,301.8333 C1366.8333,300.2233 1365.5267,298.9167 1363.9167,298.9167 M1364.5,300.0833 C1365.1417,300.0833 1365.6667,300.6083 1365.6667,301.25 C1365.6667,301.8917 1365.1417,302.4167 1364.5,302.4167 C1363.8583,302.4167 1363.3333,301.8917 1363.3333,301.25 C1363.3333,300.6083 1363.8583,300.0833 1364.5,300.0833 " fill="#7B68EE" style="stroke:;stroke-width:0.0;stroke-dasharray:;"/><path d="M1375.25,298.9167 C1373.64,298.9167 1372.3333,300.2233 1372.3333,301.8333 C1372.3333,302.02 1372.3333,302.2067 1372.3683,302.3817 L1368.8333,305.9167 L1368.8333,308.25 L1372.3333,308.25 L1372.3333,305.9167 L1374.6667,305.9167 L1374.6667,304.75 L1374.7017,304.715 C1374.8767,304.75 1375.0633,304.75 1375.25,304.75 C1376.86,304.75 1378.1667,303.4433 1378.1667,301.8333 C1378.1667,300.2233 1376.86,298.9167 1375.25,298.9167 M1375.8333,300.0833 C1376.475,300.0833 1377,300.6083 1377,301.25 C1377,301.8917 1376.475,302.4167 1375.8333,302.4167 C1375.1917,302.4167 1374.6667,301.8917 1374.6667,301.25 C1374.6667,300.6083 1375.1917,300.0833 1375.8333,300.0833 " fill="#000000" style="stroke:;stroke-width:0.0;stroke-dasharray:;"/><text fill="#000000" font-family="Heiti TC" font-size="14" lengthAdjust="spacing" textLength="150" x="1383.1667" y="308.4482">component : varchar</text><path d="M1363.9167,315.2135 C1362.3067,315.2135 1361,316.5202 1361,318.1302 C1361,318.3169 1361,318.5035 1361.035,318.6785 L1357.5,322.2135 L1357.5,324.5469 L1361,324.5469 L1361,322.2135 L1363.3333,322.2135 L1363.3333,321.0469 L1363.3683,321.0119 C1363.5433,321.0469 1363.73,321.0469 1363.9167,321.0469 C1365.5267,321.0469 1366.8333,319.7402 1366.8333,318.1302 C1366.8333,316.5202 1365.5267,315.2135 1363.9167,315.2135 M1364.5,316.3802 C1365.1417,316.3802 1365.6667,316.9052 1365.6667,317.5469 C1365.6667,318.1885 1365.1417,318.7135 1364.5,318.7135 C1363.8583,318.7135 1363.3333,318.1885 1363.3333,317.5469 C1363.3333,316.9052 1363.8583,316.3802 1364.5,316.3802 " fill="#7B68EE" style="stroke:;stroke-width:0.0;stroke-dasharray:;"/><path d="M1375.25,315.2135 C1373.64,315.2135 1372.3333,316.5202 1372.3333,318.1302 C1372.3333,318.3169 1372.3333,318.5035 1372.3683,318.6785 L1368.8333,322.2135 L1368.8333,324.5469 L1372.3333,324.5469 L1372.3333,322.2135 L1374.6667,322.2135 L1374.6667,321.0469 L1374.7017,321.0119 C1374.8767,321.0469 1375.0633,321.0469 1375.25,321.0469 C1376.86,321.0469 1378.1667,319.7402 1378.1667,318.1302 C1378.1667,316.5202 1376.86,315.2135 1375.25,315.2135 M1375.8333,316.3802 C1376.475,316.3802 1377,316.9052 1377,317.5469 C1377,318.1885 1376.475,318.7135 1375.8333,318.7135 C1375.1917,318.7135 1374.6667,318.1885 1374.6667,317.5469 C1374.6667,316.9052 1375.1917,316.3802 1375.8333,316.3802 " fill="#000000" style="stroke:;stroke-width:0.0;stroke-dasharray:;"/><text fill="#000000" font-family="Heiti TC" font-size="14" lengthAdjust="spacing" textLength="141" x="1383.1667" y="324.7451">dataset_id : varchar</text></g><!--class =RedirectingID--><g id="elem_=RedirectingID"><rect codeLine="127" fill="#F1F1F1" height="71.5469" id="=RedirectingID" rx="2.5" ry="2.5" style="stroke:#181818;stroke-width:0.5;" width="171.6667" x="91" y="482"/><rect fill="#DEDEFF" height="30.9531" rx="2.5" ry="2.5" style="stroke:#DEDEFF;stroke-width:0.5;" width="171.6667" x="91" y="482"/><rect fill="#DEDEFF" height="2.5" style="stroke:#DEDEFF;stroke-width:0.5;" width="171.6667" x="91" y="510.4531"/><rect codeLine="127" fill="none" height="71.5469" id="=RedirectingID" rx="2.5" ry="2.5" style="stroke:#181818;stroke-width:0.5;" width="171.6667" x="91" y="482"/><text fill="#000000" font-family="Heiti TC" font-size="18" font-weight="bold" lengthAdjust="spacing" textLength="144" x="104.8333" y="503.708">RedirectingID</text><line style="stroke:#181818;stroke-width:0.5;" x1="92" x2="261.6667" y1="512.9531" y2="512.9531"/><path d="M104.4167,520.4167 C102.8067,520.4167 101.5,521.7233 101.5,523.3333 C101.5,523.52 101.5,523.7067 101.535,523.8817 L98,527.4167 L98,529.75 L101.5,529.75 L101.5,527.4167 L103.8333,527.4167 L103.8333,526.25 L103.8683,526.215 C104.0433,526.25 104.23,526.25 104.4167,526.25 C106.0267,526.25 107.3333,524.9433 107.3333,523.3333 C107.3333,521.7233 106.0267,520.4167 104.4167,520.4167 M105,521.5833 C105.6417,521.5833 106.1667,522.1083 106.1667,522.75 C106.1667,523.3917 105.6417,523.9167 105,523.9167 C104.3583,523.9167 103.8333,523.3917 103.8333,522.75 C103.8333,522.1083 104.3583,521.5833 105,521.5833 " fill="#7B68EE" style="stroke:;stroke-width:0.0;stroke-dasharray:;"/><path d="M115.75,520.4167 C114.14,520.4167 112.8333,521.7233 112.8333,523.3333 C112.8333,523.52 112.8333,523.7067 112.8683,523.8817 L109.3333,527.4167 L109.3333,529.75 L112.8333,529.75 L112.8333,527.4167 L115.1667,527.4167 L115.1667,526.25 L115.2017,526.215 C115.3767,526.25 115.5633,526.25 115.75,526.25 C117.36,526.25 118.6667,524.9433 118.6667,523.3333 C118.6667,521.7233 117.36,520.4167 115.75,520.4167 M116.3333,521.5833 C116.975,521.5833 117.5,522.1083 117.5,522.75 C117.5,523.3917 116.975,523.9167 116.3333,523.9167 C115.6917,523.9167 115.1667,523.3917 115.1667,522.75 C115.1667,522.1083 115.6917,521.5833 116.3333,521.5833 " fill="#000000" style="stroke:;stroke-width:0.0;stroke-dasharray:;"/><text fill="#000000" font-family="Heiti TC" font-size="14" lengthAdjust="spacing" textLength="133" x="123.6667" y="529.9482">source_id : varchar</text><path d="M104.4167,536.7135 C102.8067,536.7135 101.5,538.0202 101.5,539.6302 C101.5,539.8169 101.5,540.0035 101.535,540.1785 L98,543.7135 L98,546.0469 L101.5,546.0469 L101.5,543.7135 L103.8333,543.7135 L103.8333,542.5469 L103.8683,542.5119 C104.0433,542.5469 104.23,542.5469 104.4167,542.5469 C106.0267,542.5469 107.3333,541.2402 107.3333,539.6302 C107.3333,538.0202 106.0267,536.7135 104.4167,536.7135 M105,537.8802 C105.6417,537.8802 106.1667,538.4052 106.1667,539.0469 C106.1667,539.6885 105.6417,540.2135 105,540.2135 C104.3583,540.2135 103.8333,539.6885 103.8333,539.0469 C103.8333,538.4052 104.3583,537.8802 105,537.8802 " fill="#7B68EE" style="stroke:;stroke-width:0.0;stroke-dasharray:;"/><path d="M115.75,536.7135 C114.14,536.7135 112.8333,538.0202 112.8333,539.6302 C112.8333,539.8169 112.8333,540.0035 112.8683,540.1785 L109.3333,543.7135 L109.3333,546.0469 L112.8333,546.0469 L112.8333,543.7135 L115.1667,543.7135 L115.1667,542.5469 L115.2017,542.5119 C115.3767,542.5469 115.5633,542.5469 115.75,542.5469 C117.36,542.5469 118.6667,541.2402 118.6667,539.6302 C118.6667,538.0202 117.36,536.7135 115.75,536.7135 M116.3333,537.8802 C116.975,537.8802 117.5,538.4052 117.5,539.0469 C117.5,539.6885 116.975,540.2135 116.3333,540.2135 C115.6917,540.2135 115.1667,539.6885 115.1667,539.0469 C115.1667,538.4052 115.6917,537.8802 116.3333,537.8802 " fill="#000000" style="stroke:;stroke-width:0.0;stroke-dasharray:;"/><text fill="#000000" font-family="Heiti TC" font-size="14" lengthAdjust="spacing" textLength="132" x="123.6667" y="546.2451">target_id : varchar</text></g><!--link =FeedHistory to =Feed--><g id="link_=FeedHistory_=Feed"><path codeLine="132" d="M279.363,296.5 C285.419,296.5 291.475,296.5 297.532,296.5 " fill="none" id="=FeedHistory-=Feed" style="stroke:#181818;stroke-width:1.0;"/><line style="stroke:#181818;stroke-width:1.0;" x1="279.272" x2="271.272" y1="296.5" y2="302.5"/><line style="stroke:#181818;stroke-width:1.0;" x1="279.272" x2="271.272" y1="296.5" y2="290.5"/><line style="stroke:#181818;stroke-width:1.0;" x1="279.272" x2="271.272" y1="296.5" y2="296.5"/><ellipse cx="285.272" cy="296.5" fill="none" rx="4" ry="4" style="stroke:#181818;stroke-width:1.0;"/><line style="stroke:#181818;stroke-width:1.0;" x1="301.79" x2="301.79" y1="292.5" y2="300.5"/><line style="stroke:#181818;stroke-width:1.0;" x1="298.79" x2="298.79" y1="292.5" y2="300.5"/><line style="stroke:#181818;stroke-width:1.0;" x1="297.79" x2="305.79" y1="296.5" y2="296.5"/></g><!--link =Feed to =GTFSRealtimeFeed--><g id="link_=Feed_=GTFSRealtimeFeed"><path codeLine="133" d="M577.196,415.115 C580.797,417.481 584.402,419.78 588,422 C630.342,448.119 681.123,470.766 722.912,487.391 " fill="none" id="=Feed-=GTFSRealtimeFeed" style="stroke:#181818;stroke-width:1.0;"/><line style="stroke:#181818;stroke-width:1.0;" x1="571.3768" x2="575.8259" y1="416.0349" y2="409.3862"/><line style="stroke:#181818;stroke-width:1.0;" x1="573.87" x2="578.3192" y1="417.7033" y2="411.0546"/><line style="stroke:#181818;stroke-width:1.0;" x1="576.9257" x2="570.277" y1="414.9351" y2="410.486"/><line style="stroke:#181818;stroke-width:1.0;" x1="720.3726" x2="730.606" y1="486.3896" y2="490.424"/><ellipse cx="720.3726" cy="486.3896" fill="none" rx="4" ry="4" style="stroke:#181818;stroke-width:1.0;"/><line style="stroke:#181818;stroke-width:1.0;" x1="728.3518" x2="725.4177" y1="485.2357" y2="492.6782"/></g><!--link =Feed to =GTFSFeed--><g id="link_=Feed_=GTFSFeed"><path codeLine="134" d="M548.712,173.705 C566.341,160.416 585.434,148.878 605.5,141 C657.523,120.575 1562.79,113.601 1611.5,141 C1656.87,166.519 1682.99,223.612 1695.84,261.059 " fill="none" id="=Feed-=GTFSFeed" style="stroke:#181818;stroke-width:1.0;"/><line style="stroke:#181818;stroke-width:1.0;" x1="547.8953" x2="543.0003" y1="179.3933" y2="173.0657"/><line style="stroke:#181818;stroke-width:1.0;" x1="550.2682" x2="545.3732" y1="177.5577" y2="171.2301"/><line style="stroke:#181818;stroke-width:1.0;" x1="548.6116" x2="542.284" y1="173.782" y2="178.677"/><line style="stroke:#181818;stroke-width:1.0;" x1="1694.9174" x2="1698.38" y1="258.2932" y2="268.734"/><ellipse cx="1694.9174" cy="258.2932" fill="none" rx="4" ry="4" style="stroke:#181818;stroke-width:1.0;"/><line style="stroke:#181818;stroke-width:1.0;" x1="1700.9175" x2="1693.3242" y1="263.6782" y2="266.1965"/></g><!--link =FeedHistory to =RedirectingID--><g id="link_=FeedHistory_=RedirectingID"><path codeLine="135" d="M161.922,429.904 C164.621,445.493 167.209,460.446 169.457,473.427 " fill="none" id="=FeedHistory-=RedirectingID" style="stroke:#181818;stroke-width:1.0;"/><line style="stroke:#181818;stroke-width:1.0;" x1="161.9183" x2="152.6712" y1="429.8838" y2="422.001"/><line style="stroke:#181818;stroke-width:1.0;" x1="161.9183" x2="168.4368" y1="429.8838" y2="422.001"/><line style="stroke:#181818;stroke-width:1.0;" x1="161.9183" x2="160.554" y1="429.8838" y2="422.001"/><line style="stroke:#181818;stroke-width:1.0;" x1="169.5177" x2="176.7941" y1="473.7762" y2="480.6358"/><line style="stroke:#181818;stroke-width:1.0;" x1="169.5177" x2="164.9699" y1="473.7762" y2="482.6822"/><line style="stroke:#181818;stroke-width:1.0;" x1="169.5177" x2="170.882" y1="473.7762" y2="481.659"/><ellipse cx="168.4945" cy="467.8641" fill="none" rx="4" ry="4" style="stroke:#181818;stroke-width:1.0;"/></g><!--link =Feed to =RedirectingID--><g id="link_=Feed_=RedirectingID"><path codeLine="136" d="M299.652,413.85 C272.727,436.494 246.25,458.761 224.826,476.779 " fill="none" id="=Feed-=RedirectingID" style="stroke:#181818;stroke-width:1.0;"/><line style="stroke:#181818;stroke-width:1.0;" x1="299.848" x2="305.971" y1="413.6847" y2="402.413"/><line style="stroke:#181818;stroke-width:1.0;" x1="299.848" x2="305.971" y1="413.6847" y2="414.659"/><line style="stroke:#181818;stroke-width:1.0;" x1="299.848" x2="305.971" y1="413.6847" y2="408.536"/><line style="stroke:#181818;stroke-width:1.0;" x1="224.757" x2="222.4955" y1="476.8373" y2="486.5782"/><line style="stroke:#181818;stroke-width:1.0;" x1="224.757" x2="214.7725" y1="476.8373" y2="477.3938"/><line style="stroke:#181818;stroke-width:1.0;" x1="224.757" x2="218.634" y1="476.8373" y2="481.986"/><ellipse cx="229.3492" cy="472.9758" fill="none" rx="4" ry="4" style="stroke:#181818;stroke-width:1.0;"/></g><!--link =Feed to =ExternalID--><g id="link_=Feed_=ExternalID"><path codeLine="137" d="M578.294,296.5 C584.626,296.5 590.958,296.5 597.29,296.5 " fill="none" id="=Feed-=ExternalID" style="stroke:#181818;stroke-width:1.0;"/><line style="stroke:#181818;stroke-width:1.0;" x1="574.023" x2="574.023" y1="300.5" y2="292.5"/><line style="stroke:#181818;stroke-width:1.0;" x1="577.023" x2="577.023" y1="300.5" y2="292.5"/><line style="stroke:#181818;stroke-width:1.0;" x1="578.023" x2="570.023" y1="296.5" y2="296.5"/><line style="stroke:#181818;stroke-width:1.0;" x1="597.31" x2="605.31" y1="296.5" y2="290.5"/><line style="stroke:#181818;stroke-width:1.0;" x1="597.31" x2="605.31" y1="296.5" y2="302.5"/><line style="stroke:#181818;stroke-width:1.0;" x1="597.31" x2="605.31" y1="296.5" y2="296.5"/><ellipse cx="591.31" cy="296.5" fill="none" rx="4" ry="4" style="stroke:#181818;stroke-width:1.0;"/></g><!--link =GTFSRealtimeFeed to =EntityTypeFeed--><g id="link_=GTFSRealtimeFeed_=EntityTypeFeed"><path codeLine="138" d="M805,545.621 C805,562.857 805,585.703 805,605.5335 " fill="none" id="=GTFSRealtimeFeed-to-=EntityTypeFeed" style="stroke:#181818;stroke-width:1.0;"/><line style="stroke:#181818;stroke-width:1.0;" x1="805" x2="811" y1="605.536" y2="613.536"/><line style="stroke:#181818;stroke-width:1.0;" x1="805" x2="799" y1="605.536" y2="613.536"/><line style="stroke:#181818;stroke-width:1.0;" x1="805" x2="805" y1="605.536" y2="613.536"/><ellipse cx="805" cy="599.536" fill="none" rx="4" ry="4" style="stroke:#181818;stroke-width:1.0;"/></g><!--reverse link =EntityTypeFeed to =EntityType--><g id="link_=EntityTypeFeed_=EntityType"><path codeLine="139" d="M911.077,650 C920.215,650 929.353,650 938.492,650 " fill="none" id="=EntityTypeFeed-backto-=EntityType" style="stroke:#181818;stroke-width:1.0;"/><line style="stroke:#181818;stroke-width:1.0;" x1="911.047" x2="903.047" y1="650" y2="656"/><line style="stroke:#181818;stroke-width:1.0;" x1="911.047" x2="903.047" y1="650" y2="644"/><line style="stroke:#181818;stroke-width:1.0;" x1="911.047" x2="903.047" y1="650" y2="650"/><line style="stroke:#181818;stroke-width:1.0;" x1="913.047" x2="913.047" y1="654" y2="646"/></g><!--link =GTFSRealtimeFeed to =FeedReference--><g id="link_=GTFSRealtimeFeed_=FeedReference"><path codeLine="140" d="M904.213,488.362 C1030.38,455.073 1254.33,410.761 1441.5,452 C1466.25,457.452 1491.81,467.645 1514.33,478.417 " fill="none" id="=GTFSRealtimeFeed-=FeedReference" style="stroke:#181818;stroke-width:1.0;"/><line style="stroke:#181818;stroke-width:1.0;" x1="904.149" x2="897.9608" y1="488.381" y2="496.2363"/><line style="stroke:#181818;stroke-width:1.0;" x1="904.149" x2="894.8752" y1="488.381" y2="484.6397"/><line style="stroke:#181818;stroke-width:1.0;" x1="904.149" x2="896.418" y1="488.381" y2="490.438"/><line style="stroke:#181818;stroke-width:1.0;" x1="907.1103" x2="905.0533" y1="491.7322" y2="484.0012"/><line style="stroke:#181818;stroke-width:1.0;" x1="1514.3426" x2="1524.1648" y1="478.417" y2="476.5394"/><line style="stroke:#181818;stroke-width:1.0;" x1="1514.3426" x2="1518.8952" y1="478.417" y2="487.3206"/><line style="stroke:#181818;stroke-width:1.0;" x1="1514.3426" x2="1521.53" y1="478.417" y2="481.93"/><ellipse cx="1508.952" cy="475.7822" fill="none" rx="4" ry="4" style="stroke:#181818;stroke-width:1.0;"/></g><!--link =GTFSFeed to =FeedReference--><g id="link_=GTFSFeed_=FeedReference"><path codeLine="141" d="M1687.12,331.465 C1665.66,370.079 1630.6,433.152 1607.42,474.869 " fill="none" id="=GTFSFeed-=FeedReference" style="stroke:#181818;stroke-width:1.0;"/><line style="stroke:#181818;stroke-width:1.0;" x1="1687.1501" x2="1685.797" y1="331.4056" y2="321.4976"/><line style="stroke:#181818;stroke-width:1.0;" x1="1687.1501" x2="1696.283" y1="331.4056" y2="327.3324"/><line style="stroke:#181818;stroke-width:1.0;" x1="1687.1501" x2="1691.04" y1="331.4056" y2="324.415"/><ellipse cx="1684.2327" cy="336.6486" fill="none" rx="4" ry="4" style="stroke:#181818;stroke-width:1.0;"/><line style="stroke:#181818;stroke-width:1.0;" x1="1607.4088" x2="1608.7634" y1="474.8948" y2="484.8026"/><line style="stroke:#181818;stroke-width:1.0;" x1="1607.4088" x2="1598.2766" y1="474.8948" y2="478.9694"/><line style="stroke:#181818;stroke-width:1.0;" x1="1607.4088" x2="1603.52" y1="474.8948" y2="481.886"/><ellipse cx="1610.3254" cy="469.6513" fill="none" rx="4" ry="4" style="stroke:#181818;stroke-width:1.0;"/></g><!--link =GTFSFeed to =LocationFeed--><g id="link_=GTFSFeed_=LocationFeed"><path codeLine="142" d="M1719.73,324.415 C1738.88,361.936 1773.78,430.337 1796.42,474.708 " fill="none" id="=GTFSFeed-to-=LocationFeed" style="stroke:#181818;stroke-width:1.0;"/><line style="stroke:#181818;stroke-width:1.0;" x1="1796.4453" x2="1805.425" y1="474.7594" y2="479.16"/><line style="stroke:#181818;stroke-width:1.0;" x1="1796.4453" x2="1794.735" y1="474.7594" y2="484.612"/><line style="stroke:#181818;stroke-width:1.0;" x1="1796.4453" x2="1800.08" y1="474.7594" y2="481.886"/><line style="stroke:#181818;stroke-width:1.0;" x1="1799.0999" x2="1791.9733" y1="471.1604" y2="474.7951"/></g><!--link =Location to =LocationFeed--><g id="link_=Location_=LocationFeed"><path codeLine="143" d="M1484.08,105.244 C1489.76,107.294 1495.43,109.23 1501,111 C1622.71,149.669 1696.64,76.013 1782,171 C1857.6,255.129 1841.85,401.343 1827.95,473.778 " fill="none" id="=Location-to-=LocationFeed" style="stroke:#181818;stroke-width:1.0;"/><line style="stroke:#181818;stroke-width:1.0;" x1="1827.9166" x2="1832.2453" y1="473.9689" y2="482.9834"/><line style="stroke:#181818;stroke-width:1.0;" x1="1827.9166" x2="1820.4747" y1="473.9689" y2="480.6486"/><line style="stroke:#181818;stroke-width:1.0;" x1="1827.9166" x2="1826.36" y1="473.9689" y2="481.816"/><line style="stroke:#181818;stroke-width:1.0;" x1="1832.2293" x2="1824.3821" y1="472.7854" y2="471.2288"/></g><!--link =Location to =LocationGTFSDataset--><g id="link_=Location_=LocationGTFSDataset"><path codeLine="144" d="M1279.86,86.651 C1219.35,105.062 1142.69,133.094 1081,171 C1044.02,193.72 1008.34,227.663 983.103,254.372 " fill="none" id="=Location-to-=LocationGTFSDataset" style="stroke:#181818;stroke-width:1.0;"/><line style="stroke:#181818;stroke-width:1.0;" x1="983.0239" x2="981.9443" y1="254.4556" y2="264.3972"/><line style="stroke:#181818;stroke-width:1.0;" x1="983.0239" x2="973.1777" y1="254.4556" y2="256.2028"/><line style="stroke:#181818;stroke-width:1.0;" x1="983.0239" x2="977.561" y1="254.4556" y2="260.3"/><line style="stroke:#181818;stroke-width:1.0;" x1="987.3118" x2="981.4675" y1="255.726" y2="250.2631"/></g><!--reverse link =LocationGTFSDataset to =GTFSDataset--><g id="link_=LocationGTFSDataset_=GTFSDataset"><path codeLine="145" d="M1072.23,296.5 C1081.14,296.5 1090.04,296.5 1098.95,296.5 " fill="none" id="=LocationGTFSDataset-backto-=GTFSDataset" style="stroke:#181818;stroke-width:1.0;"/><line style="stroke:#181818;stroke-width:1.0;" x1="1072.05" x2="1064.05" y1="296.5" y2="302.5"/><line style="stroke:#181818;stroke-width:1.0;" x1="1072.05" x2="1064.05" y1="296.5" y2="290.5"/><line style="stroke:#181818;stroke-width:1.0;" x1="1072.05" x2="1064.05" y1="296.5" y2="296.5"/><line style="stroke:#181818;stroke-width:1.0;" x1="1074.05" x2="1074.05" y1="300.5" y2="292.5"/></g><!--link =GTFSDataset to =GTFSFeed--><g id="link_=GTFSDataset_=GTFSFeed"><path codeLine="146" d="M1291.17,181.739 C1308.8,165.176 1328.73,150.532 1350.5,141 C1403.63,117.734 1560.95,112.566 1611.5,141 C1656.87,166.519 1682.99,223.612 1695.84,261.059 " fill="none" id="=GTFSDataset-=GTFSFeed" style="stroke:#181818;stroke-width:1.0;"/><line style="stroke:#181818;stroke-width:1.0;" x1="1291.0353" x2="1289.4475" y1="181.8683" y2="191.7414"/><line style="stroke:#181818;stroke-width:1.0;" x1="1291.0353" x2="1281.1125" y1="181.8683" y2="183.1086"/><line style="stroke:#181818;stroke-width:1.0;" x1="1291.0353" x2="1285.28" y1="181.8683" y2="187.425"/><ellipse cx="1295.3517" cy="177.7008" fill="none" rx="4" ry="4" style="stroke:#181818;stroke-width:1.0;"/><line style="stroke:#181818;stroke-width:1.0;" x1="1700.9175" x2="1693.3242" y1="263.6782" y2="266.1965"/><line style="stroke:#181818;stroke-width:1.0;" x1="1699.9732" x2="1692.3799" y1="260.8307" y2="263.349"/><line style="stroke:#181818;stroke-width:1.0;" x1="1695.8618" x2="1698.38" y1="261.1407" y2="268.734"/></g><!--link =GTFSDataset to =ComponentGTFSDataset--><g id="link_=GTFSDataset_=ComponentGTFSDataset"><path codeLine="147" d="M1315.1,296.5 C1324.21,296.5 1333.31,296.5 1342.42,296.5 " fill="none" id="=GTFSDataset-to-=ComponentGTFSDataset" style="stroke:#181818;stroke-width:1.0;"/><line style="stroke:#181818;stroke-width:1.0;" x1="1342.42" x2="1350.42" y1="296.5" y2="290.5"/><line style="stroke:#181818;stroke-width:1.0;" x1="1342.42" x2="1350.42" y1="296.5" y2="302.5"/><line style="stroke:#181818;stroke-width:1.0;" x1="1342.42" x2="1350.42" y1="296.5" y2="296.5"/><ellipse cx="1336.42" cy="296.5" fill="none" rx="4" ry="4" style="stroke:#181818;stroke-width:1.0;"/></g><!--reverse link =ComponentGTFSDataset to =Component--><g id="link_=ComponentGTFSDataset_=Component"><path codeLine="148" d="M1460.36,340.244 C1438.86,384.771 1405.84,453.136 1387.82,490.45 " fill="none" id="=ComponentGTFSDataset-backto-=Component" style="stroke:#181818;stroke-width:1.0;"/><line style="stroke:#181818;stroke-width:1.0;" x1="1460.4898" x2="1458.5675" y1="339.9694" y2="330.1559"/><line style="stroke:#181818;stroke-width:1.0;" x1="1460.4898" x2="1469.3725" y1="339.9694" y2="335.3761"/><line style="stroke:#181818;stroke-width:1.0;" x1="1460.4898" x2="1463.97" y1="339.9694" y2="332.766"/><line style="stroke:#181818;stroke-width:1.0;" x1="1456.0181" x2="1463.2214" y1="340.0301" y2="343.5103"/></g><!--SRC=[xLRTRzem47_lNs5HQMzesgHDMiMGrW_QITiUshv7nZw8LSUER8SL5VxtdPqGI69Qsj2tyH9y_jttdUzImO5O1mQqM-PmGl2NUXeJXicTCsIvMv8CiYaOUnBeza6ed1gQ4GupMaWtqShzeHcG6n1EaFkB5km6A0VZKHTQQaDElttzyMaoQQ6OfDPkGRHmEgDEi9COZZm5gl-LqiyfUvWRNIWUs4SZK4Ks7fFVm4MHtKdgu5mMy3AN4sw9VASSqBjPZQz0He4Xdxy4yhgqp2iYto-fe_SOIL9hBYsSkvcj_oJ6TJdl77M5RVDHviIYD5UedGE71KYTPsXeTSuDCFIEDoLxDyZt2G0dErwLiaVCEtlM2iruzE41bkFHnt0x9eAJCxAWXgNKL67Ww6JYwmLlDWvNLxdH2wmNq-6PeGc9yjNHlb7QTOaeXnSCJ58OsRd4caYzB-Ylq6fZoLHh2LJ5CKBDT5nMBXBqDmb51TW9SIEbOA0iH4LOHwSIaaYWRCZf6IbpMn4ZkRaHrccpV6EAobCtKOVbDmswCKuomGhIXYTEP10I2__pVPnyDn9-VJ-vkmKgVPXxDEQ-hBVAwofywoVf3Gz093vxTVJtfsID9UKrKaBrHHAqxgRY7L8GxV5RcE6OLGpwAQlcHnBtyDMI3WpKBrtsrH672CD9wimoOPftsyyMKouMmlfMZlPdLYZ1H4wbD-z0u_jdMkhDyyBVlpYl7l5rKbJ-lEndT8zA8RXYQIRyMX5zxdHX61pIP7vgM717AvyN8kdbMDUP4LE_l0arJwRw4I-lGUC4CClgDjNM-nbxyQCZAwKsxQv6-g-Icl84PwPdyH__q6-Ata1PGF5hN6bTKkIUkWUnV_RiAVh-qJzgxVFIb0CSkD1PhXMUZZYtzYivMfXORVPx1cdhmIqAnBtDOLdtVIZATkwNNqVD_7dB1s4Q3iXgDPGmSqFzL96g9NZGWGtr2e_jjQcBCsAUkYsu0zee8EjXgRKHkvQyGp1RdHwvVQzhMCTcKabjRamrVaj6P8ZEwXbqL_gwOL1ZwsXmLMWzF0muBCtOdQCrQaDy8sgdxngADxJTCBp44wch63JMyo4OWUrrJ5YSkvU3Vm00]--></g></svg>